<?xml version="1.0" encoding="UTF-8"?>
<svg width="117px" height="320px" viewBox="0 0 117 320" version="1.1" xmlns="http://www.w3.org/2000/svg" xmlns:xlink="http://www.w3.org/1999/xlink">
    <!-- Generator: Sketch 61 (89581) - https://sketch.com -->
    <title>leftInsertBottom</title>
    <desc>Created with Sketch.</desc>
    <defs>
        <path d="M69.81098,0.3969 C77.07183,0.4995 81.27328,0.8423 85.74125,1.9933 C91.68482,3.5246 96.71934,6.4001 101.068,11.0366 C107.4054,17.7952 111.1881,27.1298 113.5487,38.6545 C115.2872,47.1354 116.1826,56.5031 116.4809,67.4494 C116.6732,74.506 116.6372,79.8431 116.415,92.4177 C116.4039,93.0451 116.4039,93.0451 116.393,93.6687 C116.1527,107.5401 115.5498,114.7815 113.4216,124.5439 C111.5338,133.194 109.1682,140.3179 104.0125,154.0312 C99.03015,167.2912 96.81189,173.9636 95.08063,181.8701 C93.15007,190.6919 92.59927,197.2288 92.35547,210.3838 C92.27019,214.9444 92.2023,218.5932 92.04977,226.80357 C91.89723,235.0144 91.82933,238.66361 91.74404,243.2245 C91.71521,244.77112 91.70482,245.44534 91.65006,249.17023 C91.54068,256.61054 91.45042,260.58142 91.24832,265.15795 C90.86192,273.90851 90.14497,281.15897 88.90603,287.51228 C87.03744,297.09319 84.07834,304.77847 78.94746,310.42458 C75.2829,314.453571 70.96521,316.907558 65.87638,318.119776 C62.12821,319.012629 58.68502,319.201693 52.6825,319.116927 C43.42598,318.986742 38.31858,317.889755 32.66635,313.557625 C27.73656,309.78076 24.18789,304.35848 21.52646,297.71134 C17.69049,288.12179 16.35812,279.3004 15.65818,264.51356 C15.02341,251.12539 14.5169,240.41499 13.37828,216.3176 C12.47296,197.2201 9.892445,178.5042 5.583785,159.7865 C-4.493075,116.0264 0.8368797,70.5034 20.81027,29.6488 C25.67995,19.6852 31.33417,12.8742 40.02099,7.5209 C44.59826,4.7011 49.30724,2.7659 54.53009,1.5955 C59.10804,0.5696 63.40179,0.3044 69.81098,0.3969 Z" id="path-1"></path>
        <linearGradient x1="43.8437036%" y1="-0.60209375%" x2="39.7604621%" y2="319.202962%" id="linearGradient-3">
            <stop stop-color="#343434" offset="0%"></stop>
            <stop stop-color="#454545" offset="100%"></stop>
        </linearGradient>
        <path d="M69.81098,0.3969 C77.07183,0.4995 81.27328,0.8423 85.74125,1.9933 C91.68482,3.5246 96.71934,6.4001 101.068,11.0366 C107.4054,17.7952 111.1881,27.1298 113.5487,38.6545 C115.2872,47.1354 116.1826,56.5031 116.4809,67.4494 C116.6732,74.506 116.6372,79.8431 116.415,92.4177 C116.4039,93.0451 116.4039,93.0451 116.393,93.6687 C116.1527,107.5401 115.5498,114.7815 113.4216,124.5439 C111.5338,133.194 109.1682,140.3179 104.0125,154.0312 C99.03015,167.2912 96.81189,173.9636 95.08063,181.8701 C93.15007,190.6919 92.59927,197.2288 92.35547,210.3838 C92.27019,214.9444 92.2023,218.5932 92.04977,226.80357 C91.89723,235.0144 91.82933,238.66361 91.74404,243.2245 C91.71521,244.77112 91.70482,245.44534 91.65006,249.17023 C91.54068,256.61054 91.45042,260.58142 91.24832,265.15795 C90.86192,273.90851 90.14497,281.15897 88.90603,287.51228 C87.03744,297.09319 84.07834,304.77847 78.94746,310.42458 C75.2829,314.453571 70.96521,316.907558 65.87638,318.119776 C62.12821,319.012629 58.68502,319.201693 52.6825,319.116927 C43.42598,318.986742 38.31858,317.889755 32.66635,313.557625 C27.73656,309.78076 24.18789,304.35848 21.52646,297.71134 C17.69049,288.12179 16.35812,279.3004 15.65818,264.51356 C15.02341,251.12539 14.5169,240.41499 13.37828,216.3176 C12.47296,197.2201 9.892445,178.5042 5.583785,159.7865 C-4.493075,116.0264 0.8368797,70.5034 20.81027,29.6488 C25.67995,19.6852 31.33417,12.8742 40.02099,7.5209 C44.59826,4.7011 49.30724,2.7659 54.53009,1.5955 C59.10804,0.5696 63.40179,0.3044 69.81098,0.3969 Z" id="path-4"></path>
        <linearGradient x1="39.6669543%" y1="-31.6446808%" x2="35.5837128%" y2="288.160375%" id="linearGradient-6">
            <stop stop-color="#343434" offset="0%"></stop>
            <stop stop-color="#454545" offset="100%"></stop>
        </linearGradient>
        <path d="M69.81098,0.3969 C77.07183,0.4995 81.27328,0.8423 85.74125,1.9933 C91.68482,3.5246 96.71934,6.4001 101.068,11.0366 C107.4054,17.7952 111.1881,27.1298 113.5487,38.6545 C115.2872,47.1354 116.1826,56.5031 116.4809,67.4494 C116.6732,74.506 116.6372,79.8431 116.415,92.4177 C116.4039,93.0451 116.4039,93.0451 116.393,93.6687 C116.1527,107.5401 115.5498,114.7815 113.4216,124.5439 C111.5338,133.194 109.1682,140.3179 104.0125,154.0312 C99.03015,167.2912 96.81189,173.9636 95.08063,181.8701 C93.15007,190.6919 92.59927,197.2288 92.35547,210.3838 C92.27019,214.9444 92.2023,218.5932 92.04977,226.80357 C91.89723,235.0144 91.82933,238.66361 91.74404,243.2245 C91.71521,244.77112 91.70482,245.44534 91.65006,249.17023 C91.54068,256.61054 91.45042,260.58142 91.24832,265.15795 C90.86192,273.90851 90.14497,281.15897 88.90603,287.51228 C87.03744,297.09319 84.07834,304.77847 78.94746,310.42458 C75.2829,314.453571 70.96521,316.907558 65.87638,318.119776 C62.12821,319.012629 58.68502,319.201693 52.6825,319.116927 C43.42598,318.986742 38.31858,317.889755 32.66635,313.557625 C27.73656,309.78076 24.18789,304.35848 21.52646,297.71134 C17.69049,288.12179 16.35812,279.3004 15.65818,264.51356 C15.02341,251.12539 14.5169,240.41499 13.37828,216.3176 C12.47296,197.2201 9.892445,178.5042 5.583785,159.7865 C-4.493075,116.0264 0.8368797,70.5034 20.81027,29.6488 C25.67995,19.6852 31.33417,12.8742 40.02099,7.5209 C44.59826,4.7011 49.30724,2.7659 54.53009,1.5955 C59.10804,0.5696 63.40179,0.3044 69.81098,0.3969 Z" id="path-7"></path>
        <path d="M69.81098,0.3969 C77.07183,0.4995 81.27328,0.8423 85.74125,1.9933 C91.68482,3.5246 96.71934,6.4001 101.068,11.0366 C107.4054,17.7952 111.1881,27.1298 113.5487,38.6545 C115.2872,47.1354 116.1826,56.5031 116.4809,67.4494 C116.6732,74.506 116.6372,79.8431 116.415,92.4177 C116.4039,93.0451 116.4039,93.0451 116.393,93.6687 C116.1527,107.5401 115.5498,114.7815 113.4216,124.5439 C111.5338,133.194 109.1682,140.3179 104.0125,154.0312 C99.03015,167.2912 96.81189,173.9636 95.08063,181.8701 C93.15007,190.6919 92.59927,197.2288 92.35547,210.3838 C92.27019,214.9444 92.2023,218.5932 92.04977,226.80357 C91.89723,235.0144 91.82933,238.66361 91.74404,243.2245 C91.71521,244.77112 91.70482,245.44534 91.65006,249.17023 C91.54068,256.61054 91.45042,260.58142 91.24832,265.15795 C90.86192,273.90851 90.14497,281.15897 88.90603,287.51228 C87.03744,297.09319 84.07834,304.77847 78.94746,310.42458 C75.2829,314.453571 70.96521,316.907558 65.87638,318.119776 C62.12821,319.012629 58.68502,319.201693 52.6825,319.116927 C43.42598,318.986742 38.31858,317.889755 32.66635,313.557625 C27.73656,309.78076 24.18789,304.35848 21.52646,297.71134 C17.69049,288.12179 16.35812,279.3004 15.65818,264.51356 C15.02341,251.12539 14.5169,240.41499 13.37828,216.3176 C12.47296,197.2201 9.892445,178.5042 5.583785,159.7865 C-4.493075,116.0264 0.8368797,70.5034 20.81027,29.6488 C25.67995,19.6852 31.33417,12.8742 40.02099,7.5209 C44.59826,4.7011 49.30724,2.7659 54.53009,1.5955 C59.10804,0.5696 63.40179,0.3044 69.81098,0.3969 Z" id="path-9"></path>
        <linearGradient x1="43.8436934%" y1="-0.601563151%" x2="39.7604507%" y2="319.203587%" id="linearGradient-11">
            <stop stop-color="#343434" offset="0%"></stop>
            <stop stop-color="#454545" offset="100%"></stop>
        </linearGradient>
        <path d="M69.81098,0.3969 C77.07183,0.4995 81.27328,0.8423 85.74125,1.9933 C91.68482,3.5246 96.71934,6.4001 101.068,11.0366 C107.4054,17.7952 111.1881,27.1298 113.5487,38.6545 C115.2872,47.1354 116.1826,56.5031 116.4809,67.4494 C116.6732,74.506 116.6372,79.8431 116.415,92.4177 C116.4039,93.0451 116.4039,93.0451 116.393,93.6687 C116.1527,107.5401 115.5498,114.7815 113.4216,124.5439 C111.5338,133.194 109.1682,140.3179 104.0125,154.0312 C99.03015,167.2912 96.81189,173.9636 95.08063,181.8701 C93.15007,190.6919 92.59927,197.2288 92.35547,210.3838 C92.27019,214.9444 92.2023,218.5932 92.04977,226.80357 C91.89723,235.0144 91.82933,238.66361 91.74404,243.2245 C91.71521,244.77112 91.70482,245.44534 91.65006,249.17023 C91.54068,256.61054 91.45042,260.58142 91.24832,265.15795 C90.86192,273.90851 90.14497,281.15897 88.90603,287.51228 C87.03744,297.09319 84.07834,304.77847 78.94746,310.42458 C75.2829,314.453571 70.96521,316.907558 65.87638,318.119776 C62.12821,319.012629 58.68502,319.201693 52.6825,319.116927 C43.42598,318.986742 38.31858,317.889755 32.66635,313.557625 C27.73656,309.78076 24.18789,304.35848 21.52646,297.71134 C17.69049,288.12179 16.35812,279.3004 15.65818,264.51356 C15.02341,251.12539 14.5169,240.41499 13.37828,216.3176 C12.47296,197.2201 9.892445,178.5042 5.583785,159.7865 C-4.493075,116.0264 0.8368797,70.5034 20.81027,29.6488 C25.67995,19.6852 31.33417,12.8742 40.02099,7.5209 C44.59826,4.7011 49.30724,2.7659 54.53009,1.5955 C59.10804,0.5696 63.40179,0.3044 69.81098,0.3969 Z" id="path-12"></path>
        <path d="M69.81098,0.3969 C77.07183,0.4995 81.27328,0.8423 85.74125,1.9933 C91.68482,3.5246 96.71934,6.4001 101.068,11.0366 C107.4054,17.7952 111.1881,27.1298 113.5487,38.6545 C115.2872,47.1354 116.1826,56.5031 116.4809,67.4494 C116.6732,74.506 116.6372,79.8431 116.415,92.4177 C116.4039,93.0451 116.4039,93.0451 116.393,93.6687 C116.1527,107.5401 115.5498,114.7815 113.4216,124.5439 C111.5338,133.194 109.1682,140.3179 104.0125,154.0312 C99.03015,167.2912 96.81189,173.9636 95.08063,181.8701 C93.15007,190.6919 92.59927,197.2288 92.35547,210.3838 C92.27019,214.9444 92.2023,218.5932 92.04977,226.80357 C91.89723,235.0144 91.82933,238.66361 91.74404,243.2245 C91.71521,244.77112 91.70482,245.44534 91.65006,249.17023 C91.54068,256.61054 91.45042,260.58142 91.24832,265.15795 C90.86192,273.90851 90.14497,281.15897 88.90603,287.51228 C87.03744,297.09319 84.07834,304.77847 78.94746,310.42458 C75.2829,314.453571 70.96521,316.907558 65.87638,318.119776 C62.12821,319.012629 58.68502,319.201693 52.6825,319.116927 C43.42598,318.986742 38.31858,317.889755 32.66635,313.557625 C27.73656,309.78076 24.18789,304.35848 21.52646,297.71134 C17.69049,288.12179 16.35812,279.3004 15.65818,264.51356 C15.02341,251.12539 14.5169,240.41499 13.37828,216.3176 C12.47296,197.2201 9.892445,178.5042 5.583785,159.7865 C-4.493075,116.0264 0.8368797,70.5034 20.81027,29.6488 C25.67995,19.6852 31.33417,12.8742 40.02099,7.5209 C44.59826,4.7011 49.30724,2.7659 54.53009,1.5955 C59.10804,0.5696 63.40179,0.3044 69.81098,0.3969 Z" id="path-14"></path>
        <path d="M69.81098,0.3969 C77.07183,0.4995 81.27328,0.8423 85.74125,1.9933 C91.68482,3.5246 96.71934,6.4001 101.068,11.0366 C107.4054,17.7952 111.1881,27.1298 113.5487,38.6545 C115.2872,47.1354 116.1826,56.5031 116.4809,67.4494 C116.6732,74.506 116.6372,79.8431 116.415,92.4177 C116.4039,93.0451 116.4039,93.0451 116.393,93.6687 C116.1527,107.5401 115.5498,114.7815 113.4216,124.5439 C111.5338,133.194 109.1682,140.3179 104.0125,154.0312 C99.03015,167.2912 96.81189,173.9636 95.08063,181.8701 C93.15007,190.6919 92.59927,197.2288 92.35547,210.3838 C92.27019,214.9444 92.2023,218.5932 92.04977,226.80357 C91.89723,235.0144 91.82933,238.66361 91.74404,243.2245 C91.71521,244.77112 91.70482,245.44534 91.65006,249.17023 C91.54068,256.61054 91.45042,260.58142 91.24832,265.15795 C90.86192,273.90851 90.14497,281.15897 88.90603,287.51228 C87.03744,297.09319 84.07834,304.77847 78.94746,310.42458 C75.2829,314.453571 70.96521,316.907558 65.87638,318.119776 C62.12821,319.012629 58.68502,319.201693 52.6825,319.116927 C43.42598,318.986742 38.31858,317.889755 32.66635,313.557625 C27.73656,309.78076 24.18789,304.35848 21.52646,297.71134 C17.69049,288.12179 16.35812,279.3004 15.65818,264.51356 C15.02341,251.12539 14.5169,240.41499 13.37828,216.3176 C12.47296,197.2201 9.892445,178.5042 5.583785,159.7865 C-4.493075,116.0264 0.8368797,70.5034 20.81027,29.6488 C25.67995,19.6852 31.33417,12.8742 40.02099,7.5209 C44.59826,4.7011 49.30724,2.7659 54.53009,1.5955 C59.10804,0.5696 63.40179,0.3044 69.81098,0.3969 Z" id="path-16"></path>
        <path d="M69.81098,0.3969 C77.07183,0.4995 81.27328,0.8423 85.74125,1.9933 C91.68482,3.5246 96.71934,6.4001 101.068,11.0366 C107.4054,17.7952 111.1881,27.1298 113.5487,38.6545 C115.2872,47.1354 116.1826,56.5031 116.4809,67.4494 C116.6732,74.506 116.6372,79.8431 116.415,92.4177 C116.4039,93.0451 116.4039,93.0451 116.393,93.6687 C116.1527,107.5401 115.5498,114.7815 113.4216,124.5439 C111.5338,133.194 109.1682,140.3179 104.0125,154.0312 C99.03015,167.2912 96.81189,173.9636 95.08063,181.8701 C93.15007,190.6919 92.59927,197.2288 92.35547,210.3838 C92.27019,214.9444 92.2023,218.5932 92.04977,226.80357 C91.89723,235.0144 91.82933,238.66361 91.74404,243.2245 C91.71521,244.77112 91.70482,245.44534 91.65006,249.17023 C91.54068,256.61054 91.45042,260.58142 91.24832,265.15795 C90.86192,273.90851 90.14497,281.15897 88.90603,287.51228 C87.03744,297.09319 84.07834,304.77847 78.94746,310.42458 C75.2829,314.453571 70.96521,316.907558 65.87638,318.119776 C62.12821,319.012629 58.68502,319.201693 52.6825,319.116927 C43.42598,318.986742 38.31858,317.889755 32.66635,313.557625 C27.73656,309.78076 24.18789,304.35848 21.52646,297.71134 C17.69049,288.12179 16.35812,279.3004 15.65818,264.51356 C15.02341,251.12539 14.5169,240.41499 13.37828,216.3176 C12.47296,197.2201 9.892445,178.5042 5.583785,159.7865 C-4.493075,116.0264 0.8368797,70.5034 20.81027,29.6488 C25.67995,19.6852 31.33417,12.8742 40.02099,7.5209 C44.59826,4.7011 49.30724,2.7659 54.53009,1.5955 C59.10804,0.5696 63.40179,0.3044 69.81098,0.3969 Z" id="path-18"></path>
        <linearGradient x1="51.4026555%" y1="98.4718335%" x2="51.3492191%" y2="0.115288175%" id="linearGradient-20">
            <stop stop-color="#343434" offset="0%"></stop>
            <stop stop-color="#454545" offset="100%"></stop>
        </linearGradient>
        <path d="M63.72622,0.3963 C74.04016,0.542 83.13903,1.0886 90.69119,9.1408 C96.9531,15.8188 100.0051,25.7265 101.671,33.8594 C105.1711,50.9345 104.6919,70.4558 104.3939,87.5647 C104.2073,98.3313 103.8784,106.6281 101.5595,117.2645 C99.4144,127.0942 95.9427,136.4867 92.39594,145.9208 C88.84914,155.36 85.37229,164.7551 83.21935,174.5874 C80.89281,185.2187 80.55601,193.5077 80.35652,204.2716 C80.15184,215.21775 79.94976,226.1665 79.74509,237.11265 C79.49637,250.45311 79.61037,267.06492 77.01699,280.36374 C75.75008,286.8596 73.42097,294.98202 68.50882,300.38743 C62.47745,307.018625 55.06001,307.234634 46.76688,307.11752 C40.66037,307.031638 35.39848,306.69071 30.31534,302.79476 C25.87212,299.39068 22.99375,294.21949 21.0973,289.48292 C16.9883,279.21082 16.15665,268.90229 15.65144,258.22941 C14.88975,242.16412 14.13065,226.09884 13.37155,210.0335 C12.44922,190.5772 9.81957,171.506 5.43076,152.44 C-4.336529,110.0244 0.829515,65.9066 20.20088,26.2834 C24.13889,18.2261 28.86968,11.7432 37.16799,6.6293 C41.11376,4.1986 45.19685,2.4913 49.84215,1.4504 C54.46413,0.4145 59.03688,0.3287 63.72622,0.3963 Z M50.23577,3.2068 C45.8658,4.1861 41.96139,5.7906 38.11233,8.1617 C30.79674,12.67 26.08233,18.349 21.81797,27.074 C2.626771,66.3287 -2.489297,110.025 7.18489,152.0363 C11.59794,171.2076 14.24215,190.3853 15.16954,209.9486 C16.30819,234.04643 16.81469,244.75655 17.44943,258.14429 C18.11141,272.12923 19.33513,280.23119 22.76833,288.81386 C24.95378,294.27222 27.77241,298.57899 31.41031,301.36611 C35.39251,304.418254 39.07485,305.209161 46.7923,305.3177 C57.68418,305.471512 62.49343,304.32589 67.17669,299.17688 C71.12335,294.83391 73.63125,288.3205 75.25027,280.01921 C76.40331,274.10639 77.0851,267.21148 77.45592,258.81386 C77.65362,254.33657 77.7426,250.42229 77.8509,243.05557 C77.90585,239.31787 77.91629,238.64054 77.9454,237.079 C78.03068,232.5182 78.09858,228.86921 78.25112,220.65869 C78.40365,212.4481 78.47155,208.7989 78.55683,204.2382 C78.80931,190.6149 79.39787,183.63 81.461,174.2024 C83.29703,165.8174 85.60101,158.887 90.71107,145.2873 C95.7391,131.9134 98.0178,125.0512 99.8009,116.8811 C101.7966,107.7269 102.3619,100.9348 102.5942,87.5334 C102.6051,86.9079 102.6051,86.9079 102.6161,86.2799 C102.8363,73.8238 102.8719,68.5615 102.6838,61.6619 C102.3969,51.1343 101.5427,42.1972 99.9076,34.2206 C97.8104,23.9821 94.5151,15.8503 89.37829,10.3721 C83.36571,3.9614 77.25692,2.3877 63.70024,2.1962 C57.85073,2.1118 54.08406,2.3443 50.23577,3.2068 Z" id="path-21"></path>
    </defs>
    <g id="Page-1" stroke="none" stroke-width="1" fill="none" fill-rule="evenodd">
        <g id="leftInsertBottom">
            <g id="Group-7">
                <g id="Group-3">
                    <mask id="mask-2" fill="white">
                        <use xlink:href="#path-1"></use>
                    </mask>
                    <g id="Clip-2"></g>
                    <polygon id="Fill-1" fill="url(#linearGradient-3)" mask="url(#mask-2)" points="0 320 117 320 117 0 0 0"></polygon>
                </g>
                <g id="Group-6">
                    <mask id="mask-5" fill="white">
                        <use xlink:href="#path-4"></use>
                    </mask>
                    <g id="Clip-5"></g>
                    <polygon id="Fill-4" fill="url(#linearGradient-6)" mask="url(#mask-5)" points="0 320 117 320 117 0 0 0"></polygon>
                </g>
            </g>
            <g id="Group-14">
                <g id="Group-10">
                    <mask id="mask-8" fill="white">
                        <use xlink:href="#path-7"></use>
                    </mask>
                    <g id="Clip-9"></g>
                    <polygon id="Fill-8" fill="url(#linearGradient-3)" mask="url(#mask-8)" points="0 320 117 320 117 0 0 0"></polygon>
                </g>
                <g id="Group-13">
                    <mask id="mask-10" fill="white">
                        <use xlink:href="#path-9"></use>
                    </mask>
                    <g id="Clip-12"></g>
                    <polygon id="Fill-11" fill="url(#linearGradient-11)" mask="url(#mask-10)" points="0 320 117 320 117 0 0 0"></polygon>
                </g>
            </g>
            <g id="Group-21">
                <g id="Group-17">
                    <mask id="mask-13" fill="white">
                        <use xlink:href="#path-12"></use>
                    </mask>
                    <g id="Clip-16"></g>
                    <polygon id="Fill-15" fill="url(#linearGradient-3)" mask="url(#mask-13)" points="0 320 117 320 117 0 0 0"></polygon>
                </g>
                <g id="Group-20">
                    <mask id="mask-15" fill="white">
                        <use xlink:href="#path-14"></use>
                    </mask>
                    <g id="Clip-19"></g>
                    <polygon id="Fill-18" fill="url(#linearGradient-6)" mask="url(#mask-15)" points="0 320 117 320 117 0 0 0"></polygon>
                </g>
            </g>
            <g id="Group-28">
                <g id="Group-24">
                    <mask id="mask-17" fill="white">
                        <use xlink:href="#path-16"></use>
                    </mask>
                    <g id="Clip-23"></g>
                    <polygon id="Fill-22" fill="url(#linearGradient-3)" mask="url(#mask-17)" points="0 320 117 320 117 0 0 0"></polygon>
                </g>
                <g id="Group-27">
                    <mask id="mask-19" fill="white">
                        <use xlink:href="#path-18"></use>
                    </mask>
                    <g id="Clip-26"></g>
                    <polygon id="Fill-25" fill="url(#linearGradient-20)" mask="url(#mask-19)" points="0 320 117 320 117 0 0 0"></polygon>
                </g>
            </g>
            <g id="Group-31" transform="translate(6.000000, 6.000000)">
                <mask id="mask-22" fill="white">
                    <use xlink:href="#path-21"></use>
                </mask>
                <g id="Clip-30"></g>
                <polygon id="Fill-29" fill="#00BFF3" mask="url(#mask-22)" points="-10.06117 -17.2353 122.9745 -12.5896 111.2064 324.40499 -21.82928 319.759283"></polygon>
            </g>
        </g>
    </g>
</svg>