<?xml version="1.0" encoding="UTF-8"?>
<svg width="117px" height="320px" viewBox="0 0 117 320" version="1.1" xmlns="http://www.w3.org/2000/svg" xmlns:xlink="http://www.w3.org/1999/xlink">
    <!-- Generator: Sketch 61 (89581) - https://sketch.com -->
    <title>leftInsert</title>
    <desc>Created with Sketch.</desc>
    <defs>
        <path d="M69.81098,0.3969 C77.07183,0.4995 81.27328,0.8423 85.74125,1.9933 C91.68482,3.5246 96.71934,6.4001 101.068,11.0366 C107.4054,17.7952 111.1881,27.1298 113.5487,38.6545 C115.2872,47.1354 116.1826,56.5031 116.4809,67.4494 C116.6732,74.506 116.6372,79.8431 116.415,92.4177 C116.4039,93.0451 116.4039,93.0451 116.393,93.6687 C116.1527,107.5401 115.5498,114.7815 113.4216,124.5439 C111.5338,133.194 109.1682,140.3179 104.0125,154.0312 C99.03015,167.2912 96.81189,173.9636 95.08063,181.8701 C93.15007,190.6919 92.59927,197.2288 92.35547,210.3838 C92.27019,214.9444 92.2023,218.5932 92.04977,226.80357 C91.89723,235.0144 91.82933,238.66361 91.74404,243.2245 C91.71521,244.77112 91.70482,245.44534 91.65006,249.17023 C91.54068,256.61054 91.45042,260.58142 91.24832,265.15795 C90.86192,273.90851 90.14497,281.15897 88.90603,287.51228 C87.03744,297.09319 84.07834,304.77847 78.94746,310.42458 C75.2829,314.453571 70.96521,316.907558 65.87638,318.119776 C62.12821,319.012629 58.68502,319.201693 52.6825,319.116927 C43.42598,318.986742 38.31858,317.889755 32.66635,313.557625 C27.73656,309.78076 24.18789,304.35848 21.52646,297.71134 C17.69049,288.12179 16.35812,279.3004 15.65818,264.51356 C15.02341,251.12539 14.5169,240.41499 13.37828,216.3176 C12.47296,197.2201 9.892445,178.5042 5.583785,159.7865 C-4.493075,116.0264 0.8368797,70.5034 20.81027,29.6488 C25.67995,19.6852 31.33417,12.8742 40.02099,7.5209 C44.59826,4.7011 49.30724,2.7659 54.53009,1.5955 C59.10804,0.5696 63.40179,0.3044 69.81098,0.3969 Z" id="path-1"></path>
        <linearGradient x1="0%" y1="0%" x2="0%" y2="320%" id="linearGradient-3">
            <stop stop-color="#343434" offset="0%"></stop>
            <stop stop-color="#454545" offset="100%"></stop>
        </linearGradient>
        <path d="M69.81098,0.3969 C77.07183,0.4995 81.27328,0.8423 85.74125,1.9933 C91.68482,3.5246 96.71934,6.4001 101.068,11.0366 C107.4054,17.7952 111.1881,27.1298 113.5487,38.6545 C115.2872,47.1354 116.1826,56.5031 116.4809,67.4494 C116.6732,74.506 116.6372,79.8431 116.415,92.4177 C116.4039,93.0451 116.4039,93.0451 116.393,93.6687 C116.1527,107.5401 115.5498,114.7815 113.4216,124.5439 C111.5338,133.194 109.1682,140.3179 104.0125,154.0312 C99.03015,167.2912 96.81189,173.9636 95.08063,181.8701 C93.15007,190.6919 92.59927,197.2288 92.35547,210.3838 C92.27019,214.9444 92.2023,218.5932 92.04977,226.80357 C91.89723,235.0144 91.82933,238.66361 91.74404,243.2245 C91.71521,244.77112 91.70482,245.44534 91.65006,249.17023 C91.54068,256.61054 91.45042,260.58142 91.24832,265.15795 C90.86192,273.90851 90.14497,281.15897 88.90603,287.51228 C87.03744,297.09319 84.07834,304.77847 78.94746,310.42458 C75.2829,314.453571 70.96521,316.907558 65.87638,318.119776 C62.12821,319.012629 58.68502,319.201693 52.6825,319.116927 C43.42598,318.986742 38.31858,317.889755 32.66635,313.557625 C27.73656,309.78076 24.18789,304.35848 21.52646,297.71134 C17.69049,288.12179 16.35812,279.3004 15.65818,264.51356 C15.02341,251.12539 14.5169,240.41499 13.37828,216.3176 C12.47296,197.2201 9.892445,178.5042 5.583785,159.7865 C-4.493075,116.0264 0.8368797,70.5034 20.81027,29.6488 C25.67995,19.6852 31.33417,12.8742 40.02099,7.5209 C44.59826,4.7011 49.30724,2.7659 54.53009,1.5955 C59.10804,0.5696 63.40179,0.3044 69.81098,0.3969 Z" id="path-4"></path>
        <linearGradient x1="39.6669542%" y1="-31.6446875%" x2="35.5837125%" y2="288.160375%" id="linearGradient-6">
            <stop stop-color="#343434" offset="0%"></stop>
            <stop stop-color="#454545" offset="100%"></stop>
        </linearGradient>
        <path d="M69.81098,0.3969 C77.07183,0.4995 81.27328,0.8423 85.74125,1.9933 C91.68482,3.5246 96.71934,6.4001 101.068,11.0366 C107.4054,17.7952 111.1881,27.1298 113.5487,38.6545 C115.2872,47.1354 116.1826,56.5031 116.4809,67.4494 C116.6732,74.506 116.6372,79.8431 116.415,92.4177 C116.4039,93.0451 116.4039,93.0451 116.393,93.6687 C116.1527,107.5401 115.5498,114.7815 113.4216,124.5439 C111.5338,133.194 109.1682,140.3179 104.0125,154.0312 C99.03015,167.2912 96.81189,173.9636 95.08063,181.8701 C93.15007,190.6919 92.59927,197.2288 92.35547,210.3838 C92.27019,214.9444 92.2023,218.5932 92.04977,226.80357 C91.89723,235.0144 91.82933,238.66361 91.74404,243.2245 C91.71521,244.77112 91.70482,245.44534 91.65006,249.17023 C91.54068,256.61054 91.45042,260.58142 91.24832,265.15795 C90.86192,273.90851 90.14497,281.15897 88.90603,287.51228 C87.03744,297.09319 84.07834,304.77847 78.94746,310.42458 C75.2829,314.453571 70.96521,316.907558 65.87638,318.119776 C62.12821,319.012629 58.68502,319.201693 52.6825,319.116927 C43.42598,318.986742 38.31858,317.889755 32.66635,313.557625 C27.73656,309.78076 24.18789,304.35848 21.52646,297.71134 C17.69049,288.12179 16.35812,279.3004 15.65818,264.51356 C15.02341,251.12539 14.5169,240.41499 13.37828,216.3176 C12.47296,197.2201 9.892445,178.5042 5.583785,159.7865 C-4.493075,116.0264 0.8368797,70.5034 20.81027,29.6488 C25.67995,19.6852 31.33417,12.8742 40.02099,7.5209 C44.59826,4.7011 49.30724,2.7659 54.53009,1.5955 C59.10804,0.5696 63.40179,0.3044 69.81098,0.3969 Z" id="path-7"></path>
        <path d="M69.81098,0.3969 C77.07183,0.4995 81.27328,0.8423 85.74125,1.9933 C91.68482,3.5246 96.71934,6.4001 101.068,11.0366 C107.4054,17.7952 111.1881,27.1298 113.5487,38.6545 C115.2872,47.1354 116.1826,56.5031 116.4809,67.4494 C116.6732,74.506 116.6372,79.8431 116.415,92.4177 C116.4039,93.0451 116.4039,93.0451 116.393,93.6687 C116.1527,107.5401 115.5498,114.7815 113.4216,124.5439 C111.5338,133.194 109.1682,140.3179 104.0125,154.0312 C99.03015,167.2912 96.81189,173.9636 95.08063,181.8701 C93.15007,190.6919 92.59927,197.2288 92.35547,210.3838 C92.27019,214.9444 92.2023,218.5932 92.04977,226.80357 C91.89723,235.0144 91.82933,238.66361 91.74404,243.2245 C91.71521,244.77112 91.70482,245.44534 91.65006,249.17023 C91.54068,256.61054 91.45042,260.58142 91.24832,265.15795 C90.86192,273.90851 90.14497,281.15897 88.90603,287.51228 C87.03744,297.09319 84.07834,304.77847 78.94746,310.42458 C75.2829,314.453571 70.96521,316.907558 65.87638,318.119776 C62.12821,319.012629 58.68502,319.201693 52.6825,319.116927 C43.42598,318.986742 38.31858,317.889755 32.66635,313.557625 C27.73656,309.78076 24.18789,304.35848 21.52646,297.71134 C17.69049,288.12179 16.35812,279.3004 15.65818,264.51356 C15.02341,251.12539 14.5169,240.41499 13.37828,216.3176 C12.47296,197.2201 9.892445,178.5042 5.583785,159.7865 C-4.493075,116.0264 0.8368797,70.5034 20.81027,29.6488 C25.67995,19.6852 31.33417,12.8742 40.02099,7.5209 C44.59826,4.7011 49.30724,2.7659 54.53009,1.5955 C59.10804,0.5696 63.40179,0.3044 69.81098,0.3969 Z" id="path-9"></path>
        <linearGradient x1="43.8436933%" y1="-0.60157%" x2="39.7604502%" y2="319.203438%" id="linearGradient-11">
            <stop stop-color="#343434" offset="0%"></stop>
            <stop stop-color="#454545" offset="100%"></stop>
        </linearGradient>
        <path d="M69.81098,0.3969 C77.07183,0.4995 81.27328,0.8423 85.74125,1.9933 C91.68482,3.5246 96.71934,6.4001 101.068,11.0366 C107.4054,17.7952 111.1881,27.1298 113.5487,38.6545 C115.2872,47.1354 116.1826,56.5031 116.4809,67.4494 C116.6732,74.506 116.6372,79.8431 116.415,92.4177 C116.4039,93.0451 116.4039,93.0451 116.393,93.6687 C116.1527,107.5401 115.5498,114.7815 113.4216,124.5439 C111.5338,133.194 109.1682,140.3179 104.0125,154.0312 C99.03015,167.2912 96.81189,173.9636 95.08063,181.8701 C93.15007,190.6919 92.59927,197.2288 92.35547,210.3838 C92.27019,214.9444 92.2023,218.5932 92.04977,226.80357 C91.89723,235.0144 91.82933,238.66361 91.74404,243.2245 C91.71521,244.77112 91.70482,245.44534 91.65006,249.17023 C91.54068,256.61054 91.45042,260.58142 91.24832,265.15795 C90.86192,273.90851 90.14497,281.15897 88.90603,287.51228 C87.03744,297.09319 84.07834,304.77847 78.94746,310.42458 C75.2829,314.453571 70.96521,316.907558 65.87638,318.119776 C62.12821,319.012629 58.68502,319.201693 52.6825,319.116927 C43.42598,318.986742 38.31858,317.889755 32.66635,313.557625 C27.73656,309.78076 24.18789,304.35848 21.52646,297.71134 C17.69049,288.12179 16.35812,279.3004 15.65818,264.51356 C15.02341,251.12539 14.5169,240.41499 13.37828,216.3176 C12.47296,197.2201 9.892445,178.5042 5.583785,159.7865 C-4.493075,116.0264 0.8368797,70.5034 20.81027,29.6488 C25.67995,19.6852 31.33417,12.8742 40.02099,7.5209 C44.59826,4.7011 49.30724,2.7659 54.53009,1.5955 C59.10804,0.5696 63.40179,0.3044 69.81098,0.3969 Z" id="path-12"></path>
        <path d="M69.81098,0.3969 C77.07183,0.4995 81.27328,0.8423 85.74125,1.9933 C91.68482,3.5246 96.71934,6.4001 101.068,11.0366 C107.4054,17.7952 111.1881,27.1298 113.5487,38.6545 C115.2872,47.1354 116.1826,56.5031 116.4809,67.4494 C116.6732,74.506 116.6372,79.8431 116.415,92.4177 C116.4039,93.0451 116.4039,93.0451 116.393,93.6687 C116.1527,107.5401 115.5498,114.7815 113.4216,124.5439 C111.5338,133.194 109.1682,140.3179 104.0125,154.0312 C99.03015,167.2912 96.81189,173.9636 95.08063,181.8701 C93.15007,190.6919 92.59927,197.2288 92.35547,210.3838 C92.27019,214.9444 92.2023,218.5932 92.04977,226.80357 C91.89723,235.0144 91.82933,238.66361 91.74404,243.2245 C91.71521,244.77112 91.70482,245.44534 91.65006,249.17023 C91.54068,256.61054 91.45042,260.58142 91.24832,265.15795 C90.86192,273.90851 90.14497,281.15897 88.90603,287.51228 C87.03744,297.09319 84.07834,304.77847 78.94746,310.42458 C75.2829,314.453571 70.96521,316.907558 65.87638,318.119776 C62.12821,319.012629 58.68502,319.201693 52.6825,319.116927 C43.42598,318.986742 38.31858,317.889755 32.66635,313.557625 C27.73656,309.78076 24.18789,304.35848 21.52646,297.71134 C17.69049,288.12179 16.35812,279.3004 15.65818,264.51356 C15.02341,251.12539 14.5169,240.41499 13.37828,216.3176 C12.47296,197.2201 9.892445,178.5042 5.583785,159.7865 C-4.493075,116.0264 0.8368797,70.5034 20.81027,29.6488 C25.67995,19.6852 31.33417,12.8742 40.02099,7.5209 C44.59826,4.7011 49.30724,2.7659 54.53009,1.5955 C59.10804,0.5696 63.40179,0.3044 69.81098,0.3969 Z" id="path-14"></path>
        <path d="M69.81098,0.3969 C77.07183,0.4995 81.27328,0.8423 85.74125,1.9933 C91.68482,3.5246 96.71934,6.4001 101.068,11.0366 C107.4054,17.7952 111.1881,27.1298 113.5487,38.6545 C115.2872,47.1354 116.1826,56.5031 116.4809,67.4494 C116.6732,74.506 116.6372,79.8431 116.415,92.4177 C116.4039,93.0451 116.4039,93.0451 116.393,93.6687 C116.1527,107.5401 115.5498,114.7815 113.4216,124.5439 C111.5338,133.194 109.1682,140.3179 104.0125,154.0312 C99.03015,167.2912 96.81189,173.9636 95.08063,181.8701 C93.15007,190.6919 92.59927,197.2288 92.35547,210.3838 C92.27019,214.9444 92.2023,218.5932 92.04977,226.80357 C91.89723,235.0144 91.82933,238.66361 91.74404,243.2245 C91.71521,244.77112 91.70482,245.44534 91.65006,249.17023 C91.54068,256.61054 91.45042,260.58142 91.24832,265.15795 C90.86192,273.90851 90.14497,281.15897 88.90603,287.51228 C87.03744,297.09319 84.07834,304.77847 78.94746,310.42458 C75.2829,314.453571 70.96521,316.907558 65.87638,318.119776 C62.12821,319.012629 58.68502,319.201693 52.6825,319.116927 C43.42598,318.986742 38.31858,317.889755 32.66635,313.557625 C27.73656,309.78076 24.18789,304.35848 21.52646,297.71134 C17.69049,288.12179 16.35812,279.3004 15.65818,264.51356 C15.02341,251.12539 14.5169,240.41499 13.37828,216.3176 C12.47296,197.2201 9.892445,178.5042 5.583785,159.7865 C-4.493075,116.0264 0.8368797,70.5034 20.81027,29.6488 C25.67995,19.6852 31.33417,12.8742 40.02099,7.5209 C44.59826,4.7011 49.30724,2.7659 54.53009,1.5955 C59.10804,0.5696 63.40179,0.3044 69.81098,0.3969 Z" id="path-16"></path>
        <path d="M69.81098,0.3969 C77.07183,0.4995 81.27328,0.8423 85.74125,1.9933 C91.68482,3.5246 96.71934,6.4001 101.068,11.0366 C107.4054,17.7952 111.1881,27.1298 113.5487,38.6545 C115.2872,47.1354 116.1826,56.5031 116.4809,67.4494 C116.6732,74.506 116.6372,79.8431 116.415,92.4177 C116.4039,93.0451 116.4039,93.0451 116.393,93.6687 C116.1527,107.5401 115.5498,114.7815 113.4216,124.5439 C111.5338,133.194 109.1682,140.3179 104.0125,154.0312 C99.03015,167.2912 96.81189,173.9636 95.08063,181.8701 C93.15007,190.6919 92.59927,197.2288 92.35547,210.3838 C92.27019,214.9444 92.2023,218.5932 92.04977,226.80357 C91.89723,235.0144 91.82933,238.66361 91.74404,243.2245 C91.71521,244.77112 91.70482,245.44534 91.65006,249.17023 C91.54068,256.61054 91.45042,260.58142 91.24832,265.15795 C90.86192,273.90851 90.14497,281.15897 88.90603,287.51228 C87.03744,297.09319 84.07834,304.77847 78.94746,310.42458 C75.2829,314.453571 70.96521,316.907558 65.87638,318.119776 C62.12821,319.012629 58.68502,319.201693 52.6825,319.116927 C43.42598,318.986742 38.31858,317.889755 32.66635,313.557625 C27.73656,309.78076 24.18789,304.35848 21.52646,297.71134 C17.69049,288.12179 16.35812,279.3004 15.65818,264.51356 C15.02341,251.12539 14.5169,240.41499 13.37828,216.3176 C12.47296,197.2201 9.892445,178.5042 5.583785,159.7865 C-4.493075,116.0264 0.8368797,70.5034 20.81027,29.6488 C25.67995,19.6852 31.33417,12.8742 40.02099,7.5209 C44.59826,4.7011 49.30724,2.7659 54.53009,1.5955 C59.10804,0.5696 63.40179,0.3044 69.81098,0.3969 Z" id="path-18"></path>
        <linearGradient x1="51.4026552%" y1="98.4718125%" x2="51.3492191%" y2="0.115281438%" id="linearGradient-20">
            <stop stop-color="#343434" offset="0%"></stop>
            <stop stop-color="#454545" offset="100%"></stop>
        </linearGradient>
        <path d="M63.72622,0.3963 C74.04016,0.542 83.13903,1.0886 90.69119,9.1408 C96.9531,15.8188 100.0051,25.7265 101.671,33.8594 C105.1711,50.9345 104.6919,70.4558 104.3939,87.5647 C104.2073,98.3313 103.8784,106.6281 101.5595,117.2645 C99.4144,127.0942 95.9427,136.4867 92.39594,145.9208 C88.84914,155.36 85.37229,164.7551 83.21935,174.5874 C80.89281,185.2187 80.55601,193.5077 80.35652,204.2716 C80.15184,215.21775 79.94976,226.1665 79.74509,237.11265 C79.49637,250.45311 79.61037,267.06492 77.01699,280.36374 C75.75008,286.8596 73.42097,294.98202 68.50882,300.38743 C62.47745,307.018625 55.06001,307.234634 46.76688,307.11752 C40.66037,307.031638 35.39848,306.69071 30.31534,302.79476 C25.87212,299.39068 22.99375,294.21949 21.0973,289.48292 C16.9883,279.21082 16.15665,268.90229 15.65144,258.22941 C14.88975,242.16412 14.13065,226.09884 13.37155,210.0335 C12.44922,190.5772 9.81957,171.506 5.43076,152.44 C-4.336529,110.0244 0.829515,65.9066 20.20088,26.2834 C24.13889,18.2261 28.86968,11.7432 37.16799,6.6293 C41.11376,4.1986 45.19685,2.4913 49.84215,1.4504 C54.46413,0.4145 59.03688,0.3287 63.72622,0.3963 Z M50.23577,3.2068 C45.8658,4.1861 41.96139,5.7906 38.11233,8.1617 C30.79674,12.67 26.08233,18.349 21.81797,27.074 C2.626771,66.3287 -2.489297,110.025 7.18489,152.0363 C11.59794,171.2076 14.24215,190.3853 15.16954,209.9486 C16.30819,234.04643 16.81469,244.75655 17.44943,258.14429 C18.11141,272.12923 19.33513,280.23119 22.76833,288.81386 C24.95378,294.27222 27.77241,298.57899 31.41031,301.36611 C35.39251,304.418254 39.07485,305.209161 46.7923,305.3177 C57.68418,305.471512 62.49343,304.32589 67.17669,299.17688 C71.12335,294.83391 73.63125,288.3205 75.25027,280.01921 C76.40331,274.10639 77.0851,267.21148 77.45592,258.81386 C77.65362,254.33657 77.7426,250.42229 77.8509,243.05557 C77.90585,239.31787 77.91629,238.64054 77.9454,237.079 C78.03068,232.5182 78.09858,228.86921 78.25112,220.65869 C78.40365,212.4481 78.47155,208.7989 78.55683,204.2382 C78.80931,190.6149 79.39787,183.63 81.461,174.2024 C83.29703,165.8174 85.60101,158.887 90.71107,145.2873 C95.7391,131.9134 98.0178,125.0512 99.8009,116.8811 C101.7966,107.7269 102.3619,100.9348 102.5942,87.5334 C102.6051,86.9079 102.6051,86.9079 102.6161,86.2799 C102.8363,73.8238 102.8719,68.5615 102.6838,61.6619 C102.3969,51.1343 101.5427,42.1972 99.9076,34.2206 C97.8104,23.9821 94.5151,15.8503 89.37829,10.3721 C83.36571,3.9614 77.25692,2.3877 63.70024,2.1962 C57.85073,2.1118 54.08406,2.3443 50.23577,3.2068 Z" id="path-21"></path>
        <path d="M3.79924,0.0463 L4.97799,1.5131 C4.18231,2.0857 3.56023,2.7661 3.11156,3.5543 C2.66305,4.3426 2.42305,5.1829 2.3919,6.0749 C2.35127,7.2384 2.58879,8.2686 3.10411,9.1657 C3.61944,10.0626 4.35042,10.7599 5.29723,11.2575 C6.2437,11.7551 7.33691,12.0254 8.57636,12.0687 C9.32913,12.095 10.03703,12.025 10.70023,11.8588 C11.36358,11.6926 11.95022,11.4451 12.46044,11.1163 C12.9705,10.7875 13.41284,10.3921 13.78711,9.93 C14.16156,9.4678 14.45126,8.9472 14.65621,8.3684 C14.86115,7.7897 14.97509,7.1718 14.99802,6.5151 C15.06233,4.6737 14.31578,3.0969 12.75858,1.7848 L14.04791,0.4041 C14.9596,1.1649 15.67072,2.0598 16.18143,3.0889 C16.69199,4.1179 16.92466,5.2818 16.8793,6.5808 C16.84988,7.4232 16.71111,8.2259 16.46282,8.989 C16.21469,9.7521 15.85414,10.4505 15.3815,11.0843 C14.9087,11.7182 14.34482,12.263 13.68972,12.719 C13.03479,13.1749 12.2639,13.5214 11.37643,13.7584 C10.48895,13.9954 9.53258,14.0959 8.50682,14.0601 C7.59214,14.0281 6.72332,13.8907 5.90068,13.6476 C5.07805,13.4044 4.33136,13.0532 3.66033,12.5938 C2.98944,12.1346 2.41377,11.5891 1.93346,10.9578 C1.45316,10.3264 1.08732,9.5883 0.83612,8.7433 C0.58492,7.8985 0.47631,6.9871 0.51046,6.0092 C0.53612,5.2742 0.66451,4.5623 0.89543,3.8736 C1.1262,3.1848 1.48787,2.506 1.98028,1.8371 C2.47284,1.1684 3.07906,0.5713 3.79924,0.0463 Z" id="path-23"></path>
        <polygon id="path-25" points="0.59403 0.935 16.77837 7.2836 16.70075 9.5064 0.52191 3.0003"></polygon>
        <polygon id="path-27" points="0.6144 0.988 17.00045 1.5602 16.92849 3.6209 0.54244 3.0487"></polygon>
        <polygon id="path-29" points="11.39857 0.2363 14.26882 1.3773 0.1033 5.9879 0.17656 3.8899"></polygon>
        <polygon id="path-31" points="0.15345 0.1879 16.33229 6.694 16.26017 8.7592 0.07583 2.4106"></polygon>
        <polygon id="path-33" points="14.7509 0.7064 14.67764 2.8043 3.46678 6.4584 0.60751 5.3177"></polygon>
        <path d="M17.33328,0.028 L17.25227,2.3476 L10.72195,6.127 L10.65967,7.9105 L8.52948,7.8361 L8.59854,5.8584 C8.64198,4.6142 8.65053,3.6837 8.08833,3.0485 C7.52614,2.4128 7.02186,2.0875 6.04067,2.0533 C5.02195,2.0177 4.26697,2.2938 3.70317,2.8791 C3.18243,3.4194 2.94787,4.1751 2.88504,5.1423 L2.87284,5.3885 L2.79436,7.6358 L0.66417,7.5614 L0.75131,5.066 C0.7822,4.1814 1.01367,3.4116 1.28986,2.7515 C1.56622,2.0916 2.01625,1.5651 2.48426,1.1674 C2.95225,0.7699 3.49102,0.4788 4.10037,0.295 C4.70971,0.1111 5.38266,0.0319 6.11872,0.0576 C7.46451,0.1046 8.52942,0.4712 9.31313,1.1573 C10.03655,1.7909 10.51973,2.6387 10.76205,3.7002 L10.81761,3.97 L10.84034,3.9817 L17.33328,0.028 Z" id="path-35"></path>
        <path d="M2.20631,0.34031 L37.62472,1.57715 L36.38788,36.99556 L0.96947,35.75872 L2.20631,0.34031 Z M12.58119,18.43341 C12.45167,22.1425 15.35348,25.25432 19.06257,25.38384 C22.77166,25.51336 25.88348,22.61155 26.013,18.90246 C26.14253,15.19337 23.24071,12.08155 19.53162,11.95203 C15.82253,11.8225 12.71072,14.72432 12.58119,18.43341 Z" id="path-37"></path>
    </defs>
    <g id="Page-1" stroke="none" stroke-width="1" fill="none" fill-rule="evenodd">
        <g id="leftInsert">
            <g id="Group-7">
                <g id="Group-3">
                    <mask id="mask-2" fill="white">
                        <use xlink:href="#path-1"></use>
                    </mask>
                    <g id="Clip-2"></g>
                    <polygon id="Fill-1" fill="url(#linearGradient-3)" mask="url(#mask-2)" points="0 320 117 320 117 0 0 0"></polygon>
                </g>
                <g id="Group-6">
                    <mask id="mask-5" fill="white">
                        <use xlink:href="#path-4"></use>
                    </mask>
                    <g id="Clip-5"></g>
                    <polygon id="Fill-4" fill="url(#linearGradient-6)" mask="url(#mask-5)" points="0 320 117 320 117 0 0 0"></polygon>
                </g>
            </g>
            <g id="Group-14">
                <g id="Group-10">
                    <mask id="mask-8" fill="white">
                        <use xlink:href="#path-7"></use>
                    </mask>
                    <g id="Clip-9"></g>
                    <polygon id="Fill-8" fill="url(#linearGradient-3)" mask="url(#mask-8)" points="0 320 117 320 117 0 0 0"></polygon>
                </g>
                <g id="Group-13">
                    <mask id="mask-10" fill="white">
                        <use xlink:href="#path-9"></use>
                    </mask>
                    <g id="Clip-12"></g>
                    <polygon id="Fill-11" fill="url(#linearGradient-11)" mask="url(#mask-10)" points="0 320 117 320 117 0 0 0"></polygon>
                </g>
            </g>
            <g id="Group-21">
                <g id="Group-17">
                    <mask id="mask-13" fill="white">
                        <use xlink:href="#path-12"></use>
                    </mask>
                    <g id="Clip-16"></g>
                    <polygon id="Fill-15" fill="url(#linearGradient-3)" mask="url(#mask-13)" points="0 320 117 320 117 0 0 0"></polygon>
                </g>
                <g id="Group-20">
                    <mask id="mask-15" fill="white">
                        <use xlink:href="#path-14"></use>
                    </mask>
                    <g id="Clip-19"></g>
                    <polygon id="Fill-18" fill="url(#linearGradient-6)" mask="url(#mask-15)" points="0 320 117 320 117 0 0 0"></polygon>
                </g>
            </g>
            <g id="Group-28">
                <g id="Group-24">
                    <mask id="mask-17" fill="white">
                        <use xlink:href="#path-16"></use>
                    </mask>
                    <g id="Clip-23"></g>
                    <polygon id="Fill-22" fill="url(#linearGradient-3)" mask="url(#mask-17)" points="0 320 117 320 117 0 0 0"></polygon>
                </g>
                <g id="Group-27">
                    <mask id="mask-19" fill="white">
                        <use xlink:href="#path-18"></use>
                    </mask>
                    <g id="Clip-26"></g>
                    <polygon id="Fill-25" fill="url(#linearGradient-20)" mask="url(#mask-19)" points="0 320 117 320 117 0 0 0"></polygon>
                </g>
            </g>
            <g id="Group-31" transform="translate(6.000000, 6.000000)">
                <mask id="mask-22" fill="white">
                    <use xlink:href="#path-21"></use>
                </mask>
                <g id="Clip-30"></g>
                <polygon id="Fill-29" fill="#00BFF3" mask="url(#mask-22)" points="-21.65783 -17.0639 122.8031 -17.0639 122.8031 324.23354 -21.65783 324.23354"></polygon>
            </g>
            <g id="Group-34" transform="translate(48.000000, 131.000000)">
                <mask id="mask-24" fill="white">
                    <use xlink:href="#path-23"></use>
                </mask>
                <g id="Clip-33"></g>
                <polygon id="Fill-32" fill-opacity="0.695" fill="#FFFFFF" mask="url(#mask-24)" points="-15.10351 -15.4041 32.43418 -15.4041 32.43418 29.6859 -15.10351 29.6859"></polygon>
            </g>
            <g id="Group-37" transform="translate(50.000000, 76.000000)">
                <mask id="mask-26" fill="white">
                    <use xlink:href="#path-25"></use>
                </mask>
                <g id="Clip-36"></g>
                <polygon id="Fill-35" fill-opacity="0.695" fill="#FFFFFF" mask="url(#mask-26)" points="-15.02821 -14.4079 32.32299 -14.4079 32.32299 24.8493 -15.02821 24.8493"></polygon>
            </g>
            <g id="Group-40" transform="translate(49.000000, 104.000000)">
                <mask id="mask-28" fill="white">
                    <use xlink:href="#path-27"></use>
                </mask>
                <g id="Clip-39"></g>
                <polygon id="Fill-38" fill-opacity="0.695" fill="#FFFFFF" mask="url(#mask-28)" points="-14.80046 -14.3549 32.34336 -14.3549 32.34336 18.9638 -14.80046 18.9638"></polygon>
            </g>
            <g id="Group-43" transform="translate(50.000000, 85.000000)">
                <mask id="mask-30" fill="white">
                    <use xlink:href="#path-29"></use>
                </mask>
                <g id="Clip-42"></g>
                <polygon id="Fill-41" fill-opacity="0.695" fill="#FFFFFF" mask="url(#mask-30)" points="-15.23961 -15.4936 29.64803 -15.4936 29.64803 21.8192 -15.23961 21.8192"></polygon>
            </g>
            <g id="Group-46" transform="translate(49.000000, 118.000000)">
                <mask id="mask-32" fill="white">
                    <use xlink:href="#path-31"></use>
                </mask>
                <g id="Clip-45"></g>
                <polygon id="Fill-44" fill-opacity="0.695" fill="#FFFFFF" mask="url(#mask-32)" points="-15.46879 -15.1551 31.88241 -15.1551 31.88241 24.1021 -15.46879 24.1021"></polygon>
            </g>
            <g id="Group-49" transform="translate(51.000000, 112.000000)">
                <mask id="mask-34" fill="white">
                    <use xlink:href="#path-33"></use>
                </mask>
                <g id="Clip-48"></g>
                <polygon id="Fill-47" fill-opacity="0.695" fill="#FFFFFF" mask="url(#mask-34)" points="-14.7717 -15.1242 30.09381 -15.1242 30.09381 22.1879 -14.7717 22.1879"></polygon>
            </g>
            <g id="Group-52" transform="translate(49.000000, 96.000000)">
                <mask id="mask-36" fill="white">
                    <use xlink:href="#path-35"></use>
                </mask>
                <g id="Clip-51"></g>
                <polygon id="Fill-50" fill-opacity="0.695" fill="#FFFFFF" mask="url(#mask-36)" points="-14.67873 -15.8872 32.67618 -15.8872 32.67618 23.4765 -14.67873 23.4765"></polygon>
            </g>
            <g id="Group-55" transform="translate(34.000000, 268.000000)">
                <mask id="mask-38" fill="white">
                    <use xlink:href="#path-37"></use>
                </mask>
                <g id="Clip-54"></g>
                <path d="M19.531624,11.9520227 C23.24071,12.081547 26.14253,15.193361 26.01301,18.902454 C25.88348,22.61154 22.77166,25.51336 19.062574,25.38384 C15.353481,25.25431 12.4516685,22.14249 12.5811927,18.433404 C12.7107171,14.724311 15.82253,11.8224983 19.531624,11.9520227 Z" id="Stroke-53" stroke="#00BFF3" stroke-width="2.112" mask="url(#mask-38)"></path>
            </g>
            <text id="L" font-family="Gilroy-Bold, Gilroy" font-size="7.407293" font-weight="bold" fill="#00BFF3">
                <tspan x="51" y="287.592692">L</tspan>
            </text>
        </g>
    </g>
</svg>