<?xml version="1.0" encoding="UTF-8"?>
<svg width="117px" height="320px" viewBox="0 0 117 320" version="1.1" xmlns="http://www.w3.org/2000/svg" xmlns:xlink="http://www.w3.org/1999/xlink">
    <!-- Generator: Sketch 61 (89581) - https://sketch.com -->
    <title>rightInsert</title>
    <desc>Created with Sketch.</desc>
    <defs>
        <path d="M62.46991,1.5955 C67.69276,2.7659 72.40174,4.7011 76.97901,7.5209 C85.66583,12.8742 91.32005,19.6852 96.18973,29.6488 C116.1631,70.5034 121.4931,116.0264 111.4162,159.7865 C107.1076,178.5042 104.527,197.2201 103.6217,216.3176 C102.4831,240.41499 101.9766,251.12539 101.3418,264.51356 C100.6419,279.3004 99.30951,288.12179 95.47354,297.71134 C92.81211,304.35848 89.26344,309.78076 84.33365,313.557625 C78.68142,317.889755 73.57402,318.986742 64.3175,319.116927 C58.31498,319.201693 54.87179,319.012629 51.12362,318.119776 C46.03479,316.907558 41.7171,314.453571 38.05254,310.42458 C32.92166,304.77847 29.96256,297.09319 28.09397,287.51228 C26.85503,281.15897 26.13808,273.90851 25.75168,265.15795 C25.54958,260.58142 25.45932,256.61054 25.34994,249.17023 C25.29518,245.44534 25.28479,244.77112 25.25596,243.2245 C25.17067,238.66361 25.10277,235.0144 24.95023,226.80357 C24.7977,218.5932 24.72981,214.9444 24.64453,210.3838 C24.40073,197.2288 23.84993,190.6919 21.91937,181.8701 C20.18811,173.9636 17.96988,167.2912 12.98747,154.0312 C7.831861,140.3179 5.466162,133.194 3.5784,124.5439 C1.450205,114.7815 0.8473314,107.5401 0.6070007,93.6687 C0.596099,93.0451 0.596099,93.0451 0.5850266,92.4177 C0.3628594,79.8431 0.3267566,74.506 0.5190696,67.4494 C0.8173847,56.5031 1.712766,47.1354 3.451244,38.6545 C5.811901,27.1298 9.594578,17.7952 15.93201,11.0366 C20.28066,6.4001 25.31518,3.5246 31.25875,1.9933 C35.72672,0.8423 39.92817,0.4995 47.18902,0.3969 C53.59821,0.3044 57.89196,0.5696 62.46991,1.5955 Z" id="path-1"></path>
        <linearGradient x1="0%" y1="0%" x2="0%" y2="320%" id="linearGradient-3">
            <stop stop-color="#343434" offset="0%"></stop>
            <stop stop-color="#454545" offset="100%"></stop>
        </linearGradient>
        <path d="M62.46991,1.5955 C67.69276,2.7659 72.40174,4.7011 76.97901,7.5209 C85.66583,12.8742 91.32005,19.6852 96.18973,29.6488 C116.1631,70.5034 121.4931,116.0264 111.4162,159.7865 C107.1076,178.5042 104.527,197.2201 103.6217,216.3176 C102.4831,240.41499 101.9766,251.12539 101.3418,264.51356 C100.6419,279.3004 99.30951,288.12179 95.47354,297.71134 C92.81211,304.35848 89.26344,309.78076 84.33365,313.557625 C78.68142,317.889755 73.57402,318.986742 64.3175,319.116927 C58.31498,319.201693 54.87179,319.012629 51.12362,318.119776 C46.03479,316.907558 41.7171,314.453571 38.05254,310.42458 C32.92166,304.77847 29.96256,297.09319 28.09397,287.51228 C26.85503,281.15897 26.13808,273.90851 25.75168,265.15795 C25.54958,260.58142 25.45932,256.61054 25.34994,249.17023 C25.29518,245.44534 25.28479,244.77112 25.25596,243.2245 C25.17067,238.66361 25.10277,235.0144 24.95023,226.80357 C24.7977,218.5932 24.72981,214.9444 24.64453,210.3838 C24.40073,197.2288 23.84993,190.6919 21.91937,181.8701 C20.18811,173.9636 17.96988,167.2912 12.98747,154.0312 C7.831861,140.3179 5.466162,133.194 3.5784,124.5439 C1.450205,114.7815 0.8473314,107.5401 0.6070007,93.6687 C0.596099,93.0451 0.596099,93.0451 0.5850266,92.4177 C0.3628594,79.8431 0.3267566,74.506 0.5190696,67.4494 C0.8173847,56.5031 1.712766,47.1354 3.451244,38.6545 C5.811901,27.1298 9.594578,17.7952 15.93201,11.0366 C20.28066,6.4001 25.31518,3.5246 31.25875,1.9933 C35.72672,0.8423 39.92817,0.4995 47.18902,0.3969 C53.59821,0.3044 57.89196,0.5696 62.46991,1.5955 Z" id="path-4"></path>
        <linearGradient x1="17.5124706%" y1="-27.5549062%" x2="21.5957135%" y2="292.250156%" id="linearGradient-6">
            <stop stop-color="#343434" offset="0%"></stop>
            <stop stop-color="#454545" offset="100%"></stop>
        </linearGradient>
        <path d="M62.46991,1.5955 C67.69276,2.7659 72.40174,4.7011 76.97901,7.5209 C85.66583,12.8742 91.32005,19.6852 96.18973,29.6488 C116.1631,70.5034 121.4931,116.0264 111.4162,159.7865 C107.1076,178.5042 104.527,197.2201 103.6217,216.3176 C102.4831,240.41499 101.9766,251.12539 101.3418,264.51356 C100.6419,279.3004 99.30951,288.12179 95.47354,297.71134 C92.81211,304.35848 89.26344,309.78076 84.33365,313.557625 C78.68142,317.889755 73.57402,318.986742 64.3175,319.116927 C58.31498,319.201693 54.87179,319.012629 51.12362,318.119776 C46.03479,316.907558 41.7171,314.453571 38.05254,310.42458 C32.92166,304.77847 29.96256,297.09319 28.09397,287.51228 C26.85503,281.15897 26.13808,273.90851 25.75168,265.15795 C25.54958,260.58142 25.45932,256.61054 25.34994,249.17023 C25.29518,245.44534 25.28479,244.77112 25.25596,243.2245 C25.17067,238.66361 25.10277,235.0144 24.95023,226.80357 C24.7977,218.5932 24.72981,214.9444 24.64453,210.3838 C24.40073,197.2288 23.84993,190.6919 21.91937,181.8701 C20.18811,173.9636 17.96988,167.2912 12.98747,154.0312 C7.831861,140.3179 5.466162,133.194 3.5784,124.5439 C1.450205,114.7815 0.8473314,107.5401 0.6070007,93.6687 C0.596099,93.0451 0.596099,93.0451 0.5850266,92.4177 C0.3628594,79.8431 0.3267566,74.506 0.5190696,67.4494 C0.8173847,56.5031 1.712766,47.1354 3.451244,38.6545 C5.811901,27.1298 9.594578,17.7952 15.93201,11.0366 C20.28066,6.4001 25.31518,3.5246 31.25875,1.9933 C35.72672,0.8423 39.92817,0.4995 47.18902,0.3969 C53.59821,0.3044 57.89196,0.5696 62.46991,1.5955 Z" id="path-7"></path>
        <path d="M62.46991,1.5955 C67.69276,2.7659 72.40174,4.7011 76.97901,7.5209 C85.66583,12.8742 91.32005,19.6852 96.18973,29.6488 C116.1631,70.5034 121.4931,116.0264 111.4162,159.7865 C107.1076,178.5042 104.527,197.2201 103.6217,216.3176 C102.4831,240.41499 101.9766,251.12539 101.3418,264.51356 C100.6419,279.3004 99.30951,288.12179 95.47354,297.71134 C92.81211,304.35848 89.26344,309.78076 84.33365,313.557625 C78.68142,317.889755 73.57402,318.986742 64.3175,319.116927 C58.31498,319.201693 54.87179,319.012629 51.12362,318.119776 C46.03479,316.907558 41.7171,314.453571 38.05254,310.42458 C32.92166,304.77847 29.96256,297.09319 28.09397,287.51228 C26.85503,281.15897 26.13808,273.90851 25.75168,265.15795 C25.54958,260.58142 25.45932,256.61054 25.34994,249.17023 C25.29518,245.44534 25.28479,244.77112 25.25596,243.2245 C25.17067,238.66361 25.10277,235.0144 24.95023,226.80357 C24.7977,218.5932 24.72981,214.9444 24.64453,210.3838 C24.40073,197.2288 23.84993,190.6919 21.91937,181.8701 C20.18811,173.9636 17.96988,167.2912 12.98747,154.0312 C7.831861,140.3179 5.466162,133.194 3.5784,124.5439 C1.450205,114.7815 0.8473314,107.5401 0.6070007,93.6687 C0.596099,93.0451 0.596099,93.0451 0.5850266,92.4177 C0.3628594,79.8431 0.3267566,74.506 0.5190696,67.4494 C0.8173847,56.5031 1.712766,47.1354 3.451244,38.6545 C5.811901,27.1298 9.594578,17.7952 15.93201,11.0366 C20.28066,6.4001 25.31518,3.5246 31.25875,1.9933 C35.72672,0.8423 39.92817,0.4995 47.18902,0.3969 C53.59821,0.3044 57.89196,0.5696 62.46991,1.5955 Z" id="path-9"></path>
        <linearGradient x1="56.1563023%" y1="-0.601573437%" x2="60.2395452%" y2="319.203438%" id="linearGradient-11">
            <stop stop-color="#343434" offset="0%"></stop>
            <stop stop-color="#454545" offset="100%"></stop>
        </linearGradient>
        <path d="M62.46991,1.5955 C67.69276,2.7659 72.40174,4.7011 76.97901,7.5209 C85.66583,12.8742 91.32005,19.6852 96.18973,29.6488 C116.1631,70.5034 121.4931,116.0264 111.4162,159.7865 C107.1076,178.5042 104.527,197.2201 103.6217,216.3176 C102.4831,240.41499 101.9766,251.12539 101.3418,264.51356 C100.6419,279.3004 99.30951,288.12179 95.47354,297.71134 C92.81211,304.35848 89.26344,309.78076 84.33365,313.557625 C78.68142,317.889755 73.57402,318.986742 64.3175,319.116927 C58.31498,319.201693 54.87179,319.012629 51.12362,318.119776 C46.03479,316.907558 41.7171,314.453571 38.05254,310.42458 C32.92166,304.77847 29.96256,297.09319 28.09397,287.51228 C26.85503,281.15897 26.13808,273.90851 25.75168,265.15795 C25.54958,260.58142 25.45932,256.61054 25.34994,249.17023 C25.29518,245.44534 25.28479,244.77112 25.25596,243.2245 C25.17067,238.66361 25.10277,235.0144 24.95023,226.80357 C24.7977,218.5932 24.72981,214.9444 24.64453,210.3838 C24.40073,197.2288 23.84993,190.6919 21.91937,181.8701 C20.18811,173.9636 17.96988,167.2912 12.98747,154.0312 C7.831861,140.3179 5.466162,133.194 3.5784,124.5439 C1.450205,114.7815 0.8473314,107.5401 0.6070007,93.6687 C0.596099,93.0451 0.596099,93.0451 0.5850266,92.4177 C0.3628594,79.8431 0.3267566,74.506 0.5190696,67.4494 C0.8173847,56.5031 1.712766,47.1354 3.451244,38.6545 C5.811901,27.1298 9.594578,17.7952 15.93201,11.0366 C20.28066,6.4001 25.31518,3.5246 31.25875,1.9933 C35.72672,0.8423 39.92817,0.4995 47.18902,0.3969 C53.59821,0.3044 57.89196,0.5696 62.46991,1.5955 Z" id="path-12"></path>
        <path d="M62.46991,1.5955 C67.69276,2.7659 72.40174,4.7011 76.97901,7.5209 C85.66583,12.8742 91.32005,19.6852 96.18973,29.6488 C116.1631,70.5034 121.4931,116.0264 111.4162,159.7865 C107.1076,178.5042 104.527,197.2201 103.6217,216.3176 C102.4831,240.41499 101.9766,251.12539 101.3418,264.51356 C100.6419,279.3004 99.30951,288.12179 95.47354,297.71134 C92.81211,304.35848 89.26344,309.78076 84.33365,313.557625 C78.68142,317.889755 73.57402,318.986742 64.3175,319.116927 C58.31498,319.201693 54.87179,319.012629 51.12362,318.119776 C46.03479,316.907558 41.7171,314.453571 38.05254,310.42458 C32.92166,304.77847 29.96256,297.09319 28.09397,287.51228 C26.85503,281.15897 26.13808,273.90851 25.75168,265.15795 C25.54958,260.58142 25.45932,256.61054 25.34994,249.17023 C25.29518,245.44534 25.28479,244.77112 25.25596,243.2245 C25.17067,238.66361 25.10277,235.0144 24.95023,226.80357 C24.7977,218.5932 24.72981,214.9444 24.64453,210.3838 C24.40073,197.2288 23.84993,190.6919 21.91937,181.8701 C20.18811,173.9636 17.96988,167.2912 12.98747,154.0312 C7.831861,140.3179 5.466162,133.194 3.5784,124.5439 C1.450205,114.7815 0.8473314,107.5401 0.6070007,93.6687 C0.596099,93.0451 0.596099,93.0451 0.5850266,92.4177 C0.3628594,79.8431 0.3267566,74.506 0.5190696,67.4494 C0.8173847,56.5031 1.712766,47.1354 3.451244,38.6545 C5.811901,27.1298 9.594578,17.7952 15.93201,11.0366 C20.28066,6.4001 25.31518,3.5246 31.25875,1.9933 C35.72672,0.8423 39.92817,0.4995 47.18902,0.3969 C53.59821,0.3044 57.89196,0.5696 62.46991,1.5955 Z" id="path-14"></path>
        <path d="M62.46991,1.5955 C67.69276,2.7659 72.40174,4.7011 76.97901,7.5209 C85.66583,12.8742 91.32005,19.6852 96.18973,29.6488 C116.1631,70.5034 121.4931,116.0264 111.4162,159.7865 C107.1076,178.5042 104.527,197.2201 103.6217,216.3176 C102.4831,240.41499 101.9766,251.12539 101.3418,264.51356 C100.6419,279.3004 99.30951,288.12179 95.47354,297.71134 C92.81211,304.35848 89.26344,309.78076 84.33365,313.557625 C78.68142,317.889755 73.57402,318.986742 64.3175,319.116927 C58.31498,319.201693 54.87179,319.012629 51.12362,318.119776 C46.03479,316.907558 41.7171,314.453571 38.05254,310.42458 C32.92166,304.77847 29.96256,297.09319 28.09397,287.51228 C26.85503,281.15897 26.13808,273.90851 25.75168,265.15795 C25.54958,260.58142 25.45932,256.61054 25.34994,249.17023 C25.29518,245.44534 25.28479,244.77112 25.25596,243.2245 C25.17067,238.66361 25.10277,235.0144 24.95023,226.80357 C24.7977,218.5932 24.72981,214.9444 24.64453,210.3838 C24.40073,197.2288 23.84993,190.6919 21.91937,181.8701 C20.18811,173.9636 17.96988,167.2912 12.98747,154.0312 C7.831861,140.3179 5.466162,133.194 3.5784,124.5439 C1.450205,114.7815 0.8473314,107.5401 0.6070007,93.6687 C0.596099,93.0451 0.596099,93.0451 0.5850266,92.4177 C0.3628594,79.8431 0.3267566,74.506 0.5190696,67.4494 C0.8173847,56.5031 1.712766,47.1354 3.451244,38.6545 C5.811901,27.1298 9.594578,17.7952 15.93201,11.0366 C20.28066,6.4001 25.31518,3.5246 31.25875,1.9933 C35.72672,0.8423 39.92817,0.4995 47.18902,0.3969 C53.59821,0.3044 57.89196,0.5696 62.46991,1.5955 Z" id="path-16"></path>
        <path d="M62.46991,1.5955 C67.69276,2.7659 72.40174,4.7011 76.97901,7.5209 C85.66583,12.8742 91.32005,19.6852 96.18973,29.6488 C116.1631,70.5034 121.4931,116.0264 111.4162,159.7865 C107.1076,178.5042 104.527,197.2201 103.6217,216.3176 C102.4831,240.41499 101.9766,251.12539 101.3418,264.51356 C100.6419,279.3004 99.30951,288.12179 95.47354,297.71134 C92.81211,304.35848 89.26344,309.78076 84.33365,313.557625 C78.68142,317.889755 73.57402,318.986742 64.3175,319.116927 C58.31498,319.201693 54.87179,319.012629 51.12362,318.119776 C46.03479,316.907558 41.7171,314.453571 38.05254,310.42458 C32.92166,304.77847 29.96256,297.09319 28.09397,287.51228 C26.85503,281.15897 26.13808,273.90851 25.75168,265.15795 C25.54958,260.58142 25.45932,256.61054 25.34994,249.17023 C25.29518,245.44534 25.28479,244.77112 25.25596,243.2245 C25.17067,238.66361 25.10277,235.0144 24.95023,226.80357 C24.7977,218.5932 24.72981,214.9444 24.64453,210.3838 C24.40073,197.2288 23.84993,190.6919 21.91937,181.8701 C20.18811,173.9636 17.96988,167.2912 12.98747,154.0312 C7.831861,140.3179 5.466162,133.194 3.5784,124.5439 C1.450205,114.7815 0.8473314,107.5401 0.6070007,93.6687 C0.596099,93.0451 0.596099,93.0451 0.5850266,92.4177 C0.3628594,79.8431 0.3267566,74.506 0.5190696,67.4494 C0.8173847,56.5031 1.712766,47.1354 3.451244,38.6545 C5.811901,27.1298 9.594578,17.7952 15.93201,11.0366 C20.28066,6.4001 25.31518,3.5246 31.25875,1.9933 C35.72672,0.8423 39.92817,0.4995 47.18902,0.3969 C53.59821,0.3044 57.89196,0.5696 62.46991,1.5955 Z" id="path-18"></path>
        <linearGradient x1="48.5973357%" y1="98.4718125%" x2="48.6507832%" y2="0.115277531%" id="linearGradient-20">
            <stop stop-color="#343434" offset="0%"></stop>
            <stop stop-color="#454545" offset="100%"></stop>
        </linearGradient>
        <path d="M55.15785,1.4504 C59.80315,2.4913 63.88624,4.1986 67.83201,6.6293 C76.13032,11.7432 80.86111,18.2261 84.79912,26.2834 C104.1704,65.9066 109.3365,110.0244 99.5692,152.44 C95.1804,171.506 92.55078,190.5772 91.62845,210.0335 C90.86935,226.09884 90.11025,242.16412 89.34856,258.22941 C88.84335,268.90229 88.0117,279.21082 83.9027,289.48292 C82.00625,294.21949 79.12788,299.39068 74.68466,302.79476 C69.60152,306.69071 64.33963,307.031638 58.23312,307.11752 C49.93999,307.234634 42.52255,307.018625 36.49118,300.38743 C31.57903,294.98202 29.24992,286.8596 27.98301,280.36374 C25.38963,267.06492 25.50363,250.45311 25.25491,237.11265 C25.05024,226.1665 24.84816,215.21775 24.64348,204.2716 C24.44399,193.5077 24.10719,185.2187 21.78065,174.5874 C19.62771,164.7551 16.15086,155.36 12.60406,145.9208 C9.05727,136.4867 5.58561,127.0942 3.440428,117.2645 C1.121667,106.6281 0.792637,98.3313 0.606101,87.5647 C0.308159,70.4558 -0.171137,50.9345 3.329026,33.8594 C4.99491,25.7265 8.04686,15.8188 14.30881,9.1408 C21.86097,1.0886 30.95984,0.542 41.27378,0.3963 C45.96312,0.3287 50.53587,0.4145 55.15785,1.4504 Z" id="path-21"></path>
        <path d="M10.72859,0.7588 C11.56618,0.9439 12.33555,1.2423 13.037,1.6537 C13.73828,2.065 14.3506,2.569 14.87378,3.1653 C15.39695,3.7617 15.81339,4.4724 16.12291,5.2978 C16.43244,6.1231 16.60436,7.0247 16.63851,8.0025 C16.66418,8.7376 16.58577,9.4567 16.40344,10.1597 C16.22129,10.863 15.90785,11.5654 15.4633,12.267 C15.01858,12.9685 14.45549,13.6063 13.77369,14.1804 L12.49549,12.7993 C13.24929,12.1726 13.8224,11.4505 14.215,10.633 C14.60741,9.8152 14.78822,8.9604 14.75707,8.0682 C14.71644,6.9047 14.40763,5.8936 13.83099,5.0347 C13.25435,4.1759 12.47651,3.5313 11.4973,3.101 C10.51842,2.6706 9.40901,2.4772 8.16957,2.5204 C7.4168,2.5467 6.7155,2.666 6.06552,2.878 C5.41537,3.09 4.84743,3.3779 4.36138,3.7415 C3.87551,4.1051 3.46183,4.5305 3.1207,5.0175 C2.7794,5.5046 2.52672,6.0441 2.36265,6.6358 C2.19858,7.2275 2.12801,7.8517 2.15094,8.5084 C2.21525,10.3499 3.06996,11.8707 4.71491,13.071 L3.52503,14.5383 C2.56248,13.8429 1.79067,12.9999 1.20942,12.0089 C0.62833,11.0181 0.31503,9.8731 0.26967,8.5741 C0.24025,7.7318 0.32269,6.9215 0.51715,6.1428 C0.71144,5.3643 1.02239,4.6425 1.44967,3.9772 C1.87711,3.3118 2.4016,2.729 3.0233,2.2285 C3.64484,1.728 4.38967,1.3285 5.25845,1.0302 C6.12724,0.7319 7.07426,0.5649 8.10003,0.5291 C9.0147,0.4971 9.891,0.5737 10.72859,0.7588 Z" id="path-23"></path>
        <polygon id="path-25" points="0.08518 0.6488 16.67845 6.0105 16.75057 8.0757 0.1628 2.8715"></polygon>
        <polygon id="path-27" points="16.69898 0.9621 16.77094 3.0228 0.38489 3.595 0.31293 1.5343"></polygon>
        <polygon id="path-29" points="14.25984 0.0229 14.3331 2.1208 3.39329 6.5484 0.45043 5.6103"></polygon>
        <polygon id="path-31" points="0.6446 0.3959 17.23237 5.6001 17.30999 7.823 0.71672 2.4612"></polygon>
        <polygon id="path-33" points="10.99074 0.9238 13.92261 1.8621 0.13534 7.4488 0.06208 5.351"></polygon>
        <path d="M16.82081,0.4493 L16.90795,2.9448 C16.93884,3.8294 16.76164,4.6134 16.53216,5.2912 C16.30251,5.9688 15.8903,6.5253 15.45118,6.9547 C15.01205,7.384 14.4949,7.7118 13.89986,7.9377 C13.30483,8.1637 12.63904,8.2897 11.90298,8.3154 C10.55719,8.3624 9.46931,8.0709 8.63964,7.4411 C7.87379,6.8595 7.33265,6.0475 7.01687,5.0056 L6.94262,4.7403 L6.91914,4.7302 L0.71781,9.1272 L0.63681,6.8075 L6.88759,2.5818 L6.82531,0.7984 L8.9555,0.724 L9.02456,2.7017 C9.06801,3.9459 9.1244,4.8747 9.72954,5.4692 C10.3347,6.064 10.86044,6.3533 11.84164,6.3191 C12.86035,6.2835 13.59423,5.9554 14.11583,5.3322 C14.59762,4.757 14.77889,3.9868 14.7741,3.0175 L14.76909,2.7711 L14.69062,0.5237 L16.82081,0.4493 Z" id="path-35"></path>
        <path d="M35.79369,0.34031 L37.03053,35.75872 L1.61212,36.99556 L0.37528,1.57715 L35.79369,0.34031 Z M18.46838,11.95203 C14.75929,12.08155 11.85747,15.19337 11.987,18.90246 C12.11652,22.61155 15.22834,25.51336 18.93743,25.38384 C22.64652,25.25432 25.54833,22.1425 25.41881,18.43341 C25.28928,14.72432 22.17747,11.8225 18.46838,11.95203 Z" id="path-37"></path>
    </defs>
    <g id="Page-1" stroke="none" stroke-width="1" fill="none" fill-rule="evenodd">
        <g id="rightInsert">
            <g id="Group-7">
                <g id="Group-3">
                    <mask id="mask-2" fill="white">
                        <use xlink:href="#path-1"></use>
                    </mask>
                    <g id="Clip-2"></g>
                    <polygon id="Fill-1" fill="url(#linearGradient-3)" mask="url(#mask-2)" points="0 320 117 320 117 0 0 0"></polygon>
                </g>
                <g id="Group-6">
                    <mask id="mask-5" fill="white">
                        <use xlink:href="#path-4"></use>
                    </mask>
                    <g id="Clip-5"></g>
                    <polygon id="Fill-4" fill="url(#linearGradient-6)" mask="url(#mask-5)" points="0 320 117 320 117 0 0 0"></polygon>
                </g>
            </g>
            <g id="Group-14">
                <g id="Group-10">
                    <mask id="mask-8" fill="white">
                        <use xlink:href="#path-7"></use>
                    </mask>
                    <g id="Clip-9"></g>
                    <polygon id="Fill-8" fill="url(#linearGradient-3)" mask="url(#mask-8)" points="0 320 117 320 117 0 0 0"></polygon>
                </g>
                <g id="Group-13">
                    <mask id="mask-10" fill="white">
                        <use xlink:href="#path-9"></use>
                    </mask>
                    <g id="Clip-12"></g>
                    <polygon id="Fill-11" fill="url(#linearGradient-11)" mask="url(#mask-10)" points="0 320 117 320 117 0 0 0"></polygon>
                </g>
            </g>
            <g id="Group-21">
                <g id="Group-17">
                    <mask id="mask-13" fill="white">
                        <use xlink:href="#path-12"></use>
                    </mask>
                    <g id="Clip-16"></g>
                    <polygon id="Fill-15" fill="url(#linearGradient-3)" mask="url(#mask-13)" points="0 320 117 320 117 0 0 0"></polygon>
                </g>
                <g id="Group-20">
                    <mask id="mask-15" fill="white">
                        <use xlink:href="#path-14"></use>
                    </mask>
                    <g id="Clip-19"></g>
                    <polygon id="Fill-18" fill="url(#linearGradient-6)" mask="url(#mask-15)" points="0 320 117 320 117 0 0 0"></polygon>
                </g>
            </g>
            <g id="Group-28">
                <g id="Group-24">
                    <mask id="mask-17" fill="white">
                        <use xlink:href="#path-16"></use>
                    </mask>
                    <g id="Clip-23"></g>
                    <polygon id="Fill-22" fill="url(#linearGradient-3)" mask="url(#mask-17)" points="0 320 117 320 117 0 0 0"></polygon>
                </g>
                <g id="Group-27">
                    <mask id="mask-19" fill="white">
                        <use xlink:href="#path-18"></use>
                    </mask>
                    <g id="Clip-26"></g>
                    <polygon id="Fill-25" fill="url(#linearGradient-20)" mask="url(#mask-19)" points="0 320 117 320 117 0 0 0"></polygon>
                </g>
            </g>
            <g id="Group-31" transform="translate(6.000000, 6.000000)">
                <mask id="mask-22" fill="white">
                    <use xlink:href="#path-21"></use>
                </mask>
                <g id="Clip-30"></g>
                <path d="M55.157849,1.450349 C59.803149,2.491353 63.886239,4.198598 67.832019,6.629341 C76.130319,11.74327 80.861109,18.22612 84.799119,26.28348 C104.170509,65.90667 109.336509,110.0244 99.569239,152.44 C95.180429,171.506 92.550779,190.5772 91.628459,210.0335 C90.869349,226.0988 90.110249,242.1641 89.348559,258.2295 C88.843349,268.9023 88.011699,279.2108 83.902699,289.483 C82.006249,294.2195 79.127879,299.3907 74.684669,302.7948 C69.601529,306.6907 64.339629,307.0317 58.233129,307.1176 C49.939989,307.2347 42.522559,307.0187 36.491189,300.3874 C31.579039,294.9821 29.249919,286.8596 27.983019,280.3638 C25.389639,267.065 25.503629,250.4531 25.254909,237.1126 C25.050239,226.1665 24.848159,215.2178 24.643479,204.2716 C24.443999,193.5077 24.107189,185.2187 21.780659,174.5874 C19.627709,164.7551 16.150859,155.3601 12.604069,145.9208 C9.057268,136.4867 5.585611,127.0943 3.440452,117.2645 C1.121632,106.6281 0.7926784,98.33132 0.6061165,87.56474 C0.30814323,70.45585 -0.171136,50.93445 3.329025,33.85938 C4.994908,25.72655 8.046864,15.8188 14.308809,9.140761 C21.860969,1.0886013 30.959839,0.5420745 41.273789,0.39633412 C45.963119,0.32866897 50.535879,0.41455159 55.157849,1.450349 Z" id="Stroke-29" stroke="#00BFF3" stroke-width="3.6" mask="url(#mask-22)"></path>
            </g>
            <g id="Group-34" transform="translate(50.000000, 76.000000)">
                <mask id="mask-24" fill="white">
                    <use xlink:href="#path-23"></use>
                </mask>
                <g id="Clip-33"></g>
                <polygon id="Fill-32" fill-opacity="0.695" fill="#FFFFFF" mask="url(#mask-24)" points="-15.3443 -15.1025 32.1934 -15.1025 32.1934 29.9874 -15.3443 29.9874"></polygon>
            </g>
            <g id="Group-37" transform="translate(52.000000, 136.000000)">
                <mask id="mask-26" fill="white">
                    <use xlink:href="#path-25"></use>
                </mask>
                <g id="Clip-36"></g>
                <polygon id="Fill-35" fill-opacity="0.695" fill="#FFFFFF" mask="url(#mask-26)" points="-15.25772 -15.2664 32.09347 -15.2664 32.09347 23.9908 -15.25772 23.9908"></polygon>
            </g>
            <g id="Group-40" transform="translate(51.000000, 113.000000)">
                <mask id="mask-28" fill="white">
                    <use xlink:href="#path-27"></use>
                </mask>
                <g id="Clip-39"></g>
                <polygon id="Fill-38" fill-opacity="0.695" fill="#FFFFFF" mask="url(#mask-28)" points="-15.02998 -14.3808 32.11385 -14.3808 32.11385 18.9379 -15.02998 18.9379"></polygon>
            </g>
            <g id="Group-43" transform="translate(54.000000, 130.000000)">
                <mask id="mask-30" fill="white">
                    <use xlink:href="#path-29"></use>
                </mask>
                <g id="Clip-42"></g>
                <polygon id="Fill-41" fill-opacity="0.695" fill="#FFFFFF" mask="url(#mask-30)" points="-15.07053 -15.32 29.8171 -15.32 29.8171 21.9928 -15.07053 21.9928"></polygon>
            </g>
            <g id="Group-46" transform="translate(50.000000, 95.000000)">
                <mask id="mask-32" fill="white">
                    <use xlink:href="#path-31"></use>
                </mask>
                <g id="Clip-45"></g>
                <polygon id="Fill-44" fill-opacity="0.695" fill="#FFFFFF" mask="url(#mask-32)" points="-14.6983 -15.5191 32.6529 -15.5191 32.6529 23.7381 -14.6983 23.7381"></polygon>
            </g>
            <g id="Group-49" transform="translate(51.000000, 102.000000)">
                <mask id="mask-34" fill="white">
                    <use xlink:href="#path-33"></use>
                </mask>
                <g id="Clip-48"></g>
                <polygon id="Fill-47" fill-opacity="0.695" fill="#FFFFFF" mask="url(#mask-34)" points="-15.42193 -14.5203 29.44358 -14.5203 29.44358 22.7917 -15.42193 22.7917"></polygon>
            </g>
            <g id="Group-52" transform="translate(51.000000, 117.000000)">
                <mask id="mask-36" fill="white">
                    <use xlink:href="#path-35"></use>
                </mask>
                <g id="Clip-51"></g>
                <polygon id="Fill-50" fill-opacity="0.695" fill="#FFFFFF" mask="url(#mask-36)" points="-14.90815 -14.8936 32.44677 -14.8936 32.44677 24.4701 -14.90815 24.4701"></polygon>
            </g>
            <g id="Group-55" transform="translate(45.000000, 268.000000)">
                <mask id="mask-38" fill="white">
                    <use xlink:href="#path-37"></use>
                </mask>
                <g id="Clip-54"></g>
                <path d="M18.468374,11.9520227 C14.759285,12.081547 11.8574683,15.19336 11.9869927,18.902454 C12.116517,22.61154 15.228334,25.51336 18.937424,25.38384 C22.64651,25.25431 25.54833,22.14249 25.41881,18.433404 C25.28928,14.724311 22.17746,11.8224985 18.468374,11.9520227 Z" id="Stroke-53" stroke="#00BFF3" stroke-width="2.112" mask="url(#mask-38)"></path>
            </g>
            <text id="R" font-family="Gilroy-Bold, Gilroy" font-size="7.94335" font-weight="bold" fill="#00BFF3">
                <tspan x="61" y="287.056634">R</tspan>
            </text>
        </g>
    </g>
</svg>