<?xml version="1.0" encoding="UTF-8"?>
<svg width="117px" height="320px" viewBox="0 0 117 320" version="1.1" xmlns="http://www.w3.org/2000/svg" xmlns:xlink="http://www.w3.org/1999/xlink">
    <!-- Generator: Sketch 61 (89581) - https://sketch.com -->
    <title>rightInsertBottom</title>
    <desc>Created with Sketch.</desc>
    <defs>
        <path d="M62.46991,1.5955 C67.69276,2.7659 72.40174,4.7011 76.97901,7.5209 C85.66583,12.8742 91.32005,19.6852 96.18973,29.6488 C116.1631,70.5034 121.4931,116.0264 111.4162,159.7865 C107.1076,178.5042 104.5271,197.2201 103.6217,216.3176 C102.4831,240.41499 101.9766,251.12539 101.3418,264.51356 C100.6419,279.3004 99.30951,288.12179 95.47354,297.71134 C92.81211,304.35848 89.26344,309.78076 84.33365,313.557625 C78.68142,317.889755 73.57402,318.986742 64.3175,319.116927 C58.31498,319.201693 54.87179,319.012629 51.12362,318.119776 C46.03479,316.907558 41.7171,314.453571 38.05254,310.42458 C32.92166,304.77847 29.96256,297.09319 28.09397,287.51228 C26.85503,281.15897 26.13808,273.90851 25.75168,265.15795 C25.54958,260.58142 25.45932,256.61054 25.34994,249.17023 C25.29518,245.44534 25.28479,244.77112 25.25596,243.2245 C25.17067,238.66361 25.10277,235.0144 24.95023,226.80357 C24.7977,218.5932 24.72981,214.9444 24.64453,210.3838 C24.40073,197.2288 23.84993,190.6919 21.91937,181.8701 C20.18811,173.9636 17.96985,167.2912 12.98745,154.0312 C7.831824,140.3179 5.466163,133.194 3.578429,124.5439 C1.450231,114.7815 0.8473431,107.5401 0.6069897,93.6687 C0.5961197,93.0451 0.5961197,93.0451 0.5850172,92.4177 C0.3628344,79.8431 0.3267506,74.506 0.5190956,67.4494 C0.8173577,56.5031 1.712777,47.1354 3.451255,38.6545 C5.811887,27.1298 9.594618,17.7952 15.93201,11.0366 C20.28066,6.4001 25.31518,3.5246 31.25875,1.9933 C35.72672,0.8423 39.92817,0.4995 47.18902,0.3969 C53.59821,0.3044 57.89196,0.5696 62.46991,1.5955 Z" id="path-1"></path>
        <linearGradient x1="42.9104642%" y1="0.663%" x2="46.9937057%" y2="320.468056%" id="linearGradient-3">
            <stop stop-color="#343434" offset="0%"></stop>
            <stop stop-color="#454545" offset="100%"></stop>
        </linearGradient>
        <path d="M62.46991,1.5955 C67.69276,2.7659 72.40174,4.7011 76.97901,7.5209 C85.66583,12.8742 91.32005,19.6852 96.18973,29.6488 C116.1631,70.5034 121.4931,116.0264 111.4162,159.7865 C107.1076,178.5042 104.5271,197.2201 103.6217,216.3176 C102.4831,240.41499 101.9766,251.12539 101.3418,264.51356 C100.6419,279.3004 99.30951,288.12179 95.47354,297.71134 C92.81211,304.35848 89.26344,309.78076 84.33365,313.557625 C78.68142,317.889755 73.57402,318.986742 64.3175,319.116927 C58.31498,319.201693 54.87179,319.012629 51.12362,318.119776 C46.03479,316.907558 41.7171,314.453571 38.05254,310.42458 C32.92166,304.77847 29.96256,297.09319 28.09397,287.51228 C26.85503,281.15897 26.13808,273.90851 25.75168,265.15795 C25.54958,260.58142 25.45932,256.61054 25.34994,249.17023 C25.29518,245.44534 25.28479,244.77112 25.25596,243.2245 C25.17067,238.66361 25.10277,235.0144 24.95023,226.80357 C24.7977,218.5932 24.72981,214.9444 24.64453,210.3838 C24.40073,197.2288 23.84993,190.6919 21.91937,181.8701 C20.18811,173.9636 17.96985,167.2912 12.98745,154.0312 C7.831824,140.3179 5.466163,133.194 3.578429,124.5439 C1.450231,114.7815 0.8473431,107.5401 0.6069897,93.6687 C0.5961197,93.0451 0.5961197,93.0451 0.5850172,92.4177 C0.3628344,79.8431 0.3267506,74.506 0.5190956,67.4494 C0.8173577,56.5031 1.712777,47.1354 3.451255,38.6545 C5.811887,27.1298 9.594618,17.7952 15.93201,11.0366 C20.28066,6.4001 25.31518,3.5246 31.25875,1.9933 C35.72672,0.8423 39.92817,0.4995 47.18902,0.3969 C53.59821,0.3044 57.89196,0.5696 62.46991,1.5955 Z" id="path-4"></path>
        <linearGradient x1="60.3330454%" y1="-31.6446939%" x2="64.4162869%" y2="288.160362%" id="linearGradient-6">
            <stop stop-color="#343434" offset="0%"></stop>
            <stop stop-color="#454545" offset="100%"></stop>
        </linearGradient>
        <path d="M62.46991,1.5955 C67.69276,2.7659 72.40174,4.7011 76.97901,7.5209 C85.66583,12.8742 91.32005,19.6852 96.18973,29.6488 C116.1631,70.5034 121.4931,116.0264 111.4162,159.7865 C107.1076,178.5042 104.5271,197.2201 103.6217,216.3176 C102.4831,240.41499 101.9766,251.12539 101.3418,264.51356 C100.6419,279.3004 99.30951,288.12179 95.47354,297.71134 C92.81211,304.35848 89.26344,309.78076 84.33365,313.557625 C78.68142,317.889755 73.57402,318.986742 64.3175,319.116927 C58.31498,319.201693 54.87179,319.012629 51.12362,318.119776 C46.03479,316.907558 41.7171,314.453571 38.05254,310.42458 C32.92166,304.77847 29.96256,297.09319 28.09397,287.51228 C26.85503,281.15897 26.13808,273.90851 25.75168,265.15795 C25.54958,260.58142 25.45932,256.61054 25.34994,249.17023 C25.29518,245.44534 25.28479,244.77112 25.25596,243.2245 C25.17067,238.66361 25.10277,235.0144 24.95023,226.80357 C24.7977,218.5932 24.72981,214.9444 24.64453,210.3838 C24.40073,197.2288 23.84993,190.6919 21.91937,181.8701 C20.18811,173.9636 17.96985,167.2912 12.98745,154.0312 C7.831824,140.3179 5.466163,133.194 3.578429,124.5439 C1.450231,114.7815 0.8473431,107.5401 0.6069897,93.6687 C0.5961197,93.0451 0.5961197,93.0451 0.5850172,92.4177 C0.3628344,79.8431 0.3267506,74.506 0.5190956,67.4494 C0.8173577,56.5031 1.712777,47.1354 3.451255,38.6545 C5.811887,27.1298 9.594618,17.7952 15.93201,11.0366 C20.28066,6.4001 25.31518,3.5246 31.25875,1.9933 C35.72672,0.8423 39.92817,0.4995 47.18902,0.3969 C53.59821,0.3044 57.89196,0.5696 62.46991,1.5955 Z" id="path-7"></path>
        <path d="M62.46991,1.5955 C67.69276,2.7659 72.40174,4.7011 76.97901,7.5209 C85.66583,12.8742 91.32005,19.6852 96.18973,29.6488 C116.1631,70.5034 121.4931,116.0264 111.4162,159.7865 C107.1076,178.5042 104.5271,197.2201 103.6217,216.3176 C102.4831,240.41499 101.9766,251.12539 101.3418,264.51356 C100.6419,279.3004 99.30951,288.12179 95.47354,297.71134 C92.81211,304.35848 89.26344,309.78076 84.33365,313.557625 C78.68142,317.889755 73.57402,318.986742 64.3175,319.116927 C58.31498,319.201693 54.87179,319.012629 51.12362,318.119776 C46.03479,316.907558 41.7171,314.453571 38.05254,310.42458 C32.92166,304.77847 29.96256,297.09319 28.09397,287.51228 C26.85503,281.15897 26.13808,273.90851 25.75168,265.15795 C25.54958,260.58142 25.45932,256.61054 25.34994,249.17023 C25.29518,245.44534 25.28479,244.77112 25.25596,243.2245 C25.17067,238.66361 25.10277,235.0144 24.95023,226.80357 C24.7977,218.5932 24.72981,214.9444 24.64453,210.3838 C24.40073,197.2288 23.84993,190.6919 21.91937,181.8701 C20.18811,173.9636 17.96985,167.2912 12.98745,154.0312 C7.831824,140.3179 5.466163,133.194 3.578429,124.5439 C1.450231,114.7815 0.8473431,107.5401 0.6069897,93.6687 C0.5961197,93.0451 0.5961197,93.0451 0.5850172,92.4177 C0.3628344,79.8431 0.3267506,74.506 0.5190956,67.4494 C0.8173577,56.5031 1.712777,47.1354 3.451255,38.6545 C5.811887,27.1298 9.594618,17.7952 15.93201,11.0366 C20.28066,6.4001 25.31518,3.5246 31.25875,1.9933 C35.72672,0.8423 39.92817,0.4995 47.18902,0.3969 C53.59821,0.3044 57.89196,0.5696 62.46991,1.5955 Z" id="path-9"></path>
        <linearGradient x1="56.1563029%" y1="-0.601575949%" x2="60.2395456%" y2="319.203574%" id="linearGradient-11">
            <stop stop-color="#343434" offset="0%"></stop>
            <stop stop-color="#454545" offset="100%"></stop>
        </linearGradient>
        <path d="M62.46991,1.5955 C67.69276,2.7659 72.40174,4.7011 76.97901,7.5209 C85.66583,12.8742 91.32005,19.6852 96.18973,29.6488 C116.1631,70.5034 121.4931,116.0264 111.4162,159.7865 C107.1076,178.5042 104.5271,197.2201 103.6217,216.3176 C102.4831,240.41499 101.9766,251.12539 101.3418,264.51356 C100.6419,279.3004 99.30951,288.12179 95.47354,297.71134 C92.81211,304.35848 89.26344,309.78076 84.33365,313.557625 C78.68142,317.889755 73.57402,318.986742 64.3175,319.116927 C58.31498,319.201693 54.87179,319.012629 51.12362,318.119776 C46.03479,316.907558 41.7171,314.453571 38.05254,310.42458 C32.92166,304.77847 29.96256,297.09319 28.09397,287.51228 C26.85503,281.15897 26.13808,273.90851 25.75168,265.15795 C25.54958,260.58142 25.45932,256.61054 25.34994,249.17023 C25.29518,245.44534 25.28479,244.77112 25.25596,243.2245 C25.17067,238.66361 25.10277,235.0144 24.95023,226.80357 C24.7977,218.5932 24.72981,214.9444 24.64453,210.3838 C24.40073,197.2288 23.84993,190.6919 21.91937,181.8701 C20.18811,173.9636 17.96985,167.2912 12.98745,154.0312 C7.831824,140.3179 5.466163,133.194 3.578429,124.5439 C1.450231,114.7815 0.8473431,107.5401 0.6069897,93.6687 C0.5961197,93.0451 0.5961197,93.0451 0.5850172,92.4177 C0.3628344,79.8431 0.3267506,74.506 0.5190956,67.4494 C0.8173577,56.5031 1.712777,47.1354 3.451255,38.6545 C5.811887,27.1298 9.594618,17.7952 15.93201,11.0366 C20.28066,6.4001 25.31518,3.5246 31.25875,1.9933 C35.72672,0.8423 39.92817,0.4995 47.18902,0.3969 C53.59821,0.3044 57.89196,0.5696 62.46991,1.5955 Z" id="path-12"></path>
        <path d="M62.46991,1.5955 C67.69276,2.7659 72.40174,4.7011 76.97901,7.5209 C85.66583,12.8742 91.32005,19.6852 96.18973,29.6488 C116.1631,70.5034 121.4931,116.0264 111.4162,159.7865 C107.1076,178.5042 104.5271,197.2201 103.6217,216.3176 C102.4831,240.41499 101.9766,251.12539 101.3418,264.51356 C100.6419,279.3004 99.30951,288.12179 95.47354,297.71134 C92.81211,304.35848 89.26344,309.78076 84.33365,313.557625 C78.68142,317.889755 73.57402,318.986742 64.3175,319.116927 C58.31498,319.201693 54.87179,319.012629 51.12362,318.119776 C46.03479,316.907558 41.7171,314.453571 38.05254,310.42458 C32.92166,304.77847 29.96256,297.09319 28.09397,287.51228 C26.85503,281.15897 26.13808,273.90851 25.75168,265.15795 C25.54958,260.58142 25.45932,256.61054 25.34994,249.17023 C25.29518,245.44534 25.28479,244.77112 25.25596,243.2245 C25.17067,238.66361 25.10277,235.0144 24.95023,226.80357 C24.7977,218.5932 24.72981,214.9444 24.64453,210.3838 C24.40073,197.2288 23.84993,190.6919 21.91937,181.8701 C20.18811,173.9636 17.96985,167.2912 12.98745,154.0312 C7.831824,140.3179 5.466163,133.194 3.578429,124.5439 C1.450231,114.7815 0.8473431,107.5401 0.6069897,93.6687 C0.5961197,93.0451 0.5961197,93.0451 0.5850172,92.4177 C0.3628344,79.8431 0.3267506,74.506 0.5190956,67.4494 C0.8173577,56.5031 1.712777,47.1354 3.451255,38.6545 C5.811887,27.1298 9.594618,17.7952 15.93201,11.0366 C20.28066,6.4001 25.31518,3.5246 31.25875,1.9933 C35.72672,0.8423 39.92817,0.4995 47.18902,0.3969 C53.59821,0.3044 57.89196,0.5696 62.46991,1.5955 Z" id="path-14"></path>
        <path d="M62.46991,1.5955 C67.69276,2.7659 72.40174,4.7011 76.97901,7.5209 C85.66583,12.8742 91.32005,19.6852 96.18973,29.6488 C116.1631,70.5034 121.4931,116.0264 111.4162,159.7865 C107.1076,178.5042 104.5271,197.2201 103.6217,216.3176 C102.4831,240.41499 101.9766,251.12539 101.3418,264.51356 C100.6419,279.3004 99.30951,288.12179 95.47354,297.71134 C92.81211,304.35848 89.26344,309.78076 84.33365,313.557625 C78.68142,317.889755 73.57402,318.986742 64.3175,319.116927 C58.31498,319.201693 54.87179,319.012629 51.12362,318.119776 C46.03479,316.907558 41.7171,314.453571 38.05254,310.42458 C32.92166,304.77847 29.96256,297.09319 28.09397,287.51228 C26.85503,281.15897 26.13808,273.90851 25.75168,265.15795 C25.54958,260.58142 25.45932,256.61054 25.34994,249.17023 C25.29518,245.44534 25.28479,244.77112 25.25596,243.2245 C25.17067,238.66361 25.10277,235.0144 24.95023,226.80357 C24.7977,218.5932 24.72981,214.9444 24.64453,210.3838 C24.40073,197.2288 23.84993,190.6919 21.91937,181.8701 C20.18811,173.9636 17.96985,167.2912 12.98745,154.0312 C7.831824,140.3179 5.466163,133.194 3.578429,124.5439 C1.450231,114.7815 0.8473431,107.5401 0.6069897,93.6687 C0.5961197,93.0451 0.5961197,93.0451 0.5850172,92.4177 C0.3628344,79.8431 0.3267506,74.506 0.5190956,67.4494 C0.8173577,56.5031 1.712777,47.1354 3.451255,38.6545 C5.811887,27.1298 9.594618,17.7952 15.93201,11.0366 C20.28066,6.4001 25.31518,3.5246 31.25875,1.9933 C35.72672,0.8423 39.92817,0.4995 47.18902,0.3969 C53.59821,0.3044 57.89196,0.5696 62.46991,1.5955 Z" id="path-16"></path>
        <path d="M62.46991,1.5955 C67.69276,2.7659 72.40174,4.7011 76.97901,7.5209 C85.66583,12.8742 91.32005,19.6852 96.18973,29.6488 C116.1631,70.5034 121.4931,116.0264 111.4162,159.7865 C107.1076,178.5042 104.5271,197.2201 103.6217,216.3176 C102.4831,240.41499 101.9766,251.12539 101.3418,264.51356 C100.6419,279.3004 99.30951,288.12179 95.47354,297.71134 C92.81211,304.35848 89.26344,309.78076 84.33365,313.557625 C78.68142,317.889755 73.57402,318.986742 64.3175,319.116927 C58.31498,319.201693 54.87179,319.012629 51.12362,318.119776 C46.03479,316.907558 41.7171,314.453571 38.05254,310.42458 C32.92166,304.77847 29.96256,297.09319 28.09397,287.51228 C26.85503,281.15897 26.13808,273.90851 25.75168,265.15795 C25.54958,260.58142 25.45932,256.61054 25.34994,249.17023 C25.29518,245.44534 25.28479,244.77112 25.25596,243.2245 C25.17067,238.66361 25.10277,235.0144 24.95023,226.80357 C24.7977,218.5932 24.72981,214.9444 24.64453,210.3838 C24.40073,197.2288 23.84993,190.6919 21.91937,181.8701 C20.18811,173.9636 17.96985,167.2912 12.98745,154.0312 C7.831824,140.3179 5.466163,133.194 3.578429,124.5439 C1.450231,114.7815 0.8473431,107.5401 0.6069897,93.6687 C0.5961197,93.0451 0.5961197,93.0451 0.5850172,92.4177 C0.3628344,79.8431 0.3267506,74.506 0.5190956,67.4494 C0.8173577,56.5031 1.712777,47.1354 3.451255,38.6545 C5.811887,27.1298 9.594618,17.7952 15.93201,11.0366 C20.28066,6.4001 25.31518,3.5246 31.25875,1.9933 C35.72672,0.8423 39.92817,0.4995 47.18902,0.3969 C53.59821,0.3044 57.89196,0.5696 62.46991,1.5955 Z" id="path-18"></path>
        <linearGradient x1="48.5973442%" y1="98.4718204%" x2="48.6507806%" y2="0.11527505%" id="linearGradient-20">
            <stop stop-color="#343434" offset="0%"></stop>
            <stop stop-color="#454545" offset="100%"></stop>
        </linearGradient>
        <path d="M55.15785,1.4504 C59.80315,2.4913 63.88624,4.1986 67.83201,6.6293 C76.13032,11.7432 80.86111,18.2261 84.79912,26.2834 C104.1704,65.9066 109.3365,110.0244 99.5692,152.44 C95.1804,171.506 92.55078,190.5772 91.62845,210.0335 C90.86935,226.09884 90.11025,242.16412 89.34856,258.22941 C88.84335,268.90229 88.0117,279.21082 83.9027,289.48292 C82.00625,294.21949 79.12788,299.39068 74.68466,302.79476 C69.60152,306.69071 64.33963,307.031638 58.23312,307.11752 C49.93999,307.234634 42.52255,307.018625 36.49118,300.38743 C31.57903,294.98202 29.24992,286.8596 27.98301,280.36374 C25.38963,267.06492 25.50363,250.45311 25.25491,237.11265 C25.05024,226.1665 24.84816,215.21775 24.64348,204.2716 C24.44399,193.5077 24.10719,185.2187 21.78065,174.5874 C19.62771,164.7551 16.15086,155.36 12.60406,145.9208 C9.05732,136.4867 5.58561,127.0942 3.440451,117.2645 C1.121631,106.6281 0.792678,98.3313 0.606117,87.5647 C0.308143,70.4558 -0.171135,50.9345 3.328986,33.8594 C4.99487,25.7265 8.04686,15.8188 14.30881,9.1408 C21.86097,1.0886 30.95984,0.542 41.27378,0.3963 C45.96312,0.3287 50.53587,0.4145 55.15785,1.4504 Z M41.29976,2.1962 C27.74308,2.3877 21.63429,3.9614 15.62171,10.3721 C10.48487,15.8503 7.18962,23.9821 5.09237,34.2206 C3.45735,42.1972 2.603128,51.1343 2.316162,61.6619 C2.128139,68.5615 2.163714,73.8238 2.38386,86.2799 C2.394884,86.9079 2.394884,86.9079 2.40582,87.5334 C2.638062,100.9348 3.203448,107.7269 5.19914,116.8811 C6.98216,125.0512 9.26094,131.9134 14.28893,145.2873 C19.39899,158.887 21.70297,165.8174 23.539,174.2024 C25.60213,183.63 26.19069,190.6149 26.44317,204.2382 C26.52845,208.7989 26.59635,212.4481 26.74888,220.65869 C26.90142,228.86921 26.96932,232.5182 27.0546,237.079 C27.08371,238.64054 27.09415,239.31787 27.1491,243.05557 C27.2574,250.42229 27.34638,254.33657 27.54408,258.81386 C27.9149,267.21148 28.59669,274.10639 29.74973,280.01921 C31.36875,288.3205 33.87665,294.83391 37.82331,299.17688 C42.50657,304.32589 47.31582,305.471512 58.2077,305.3177 C65.92515,305.209161 69.60749,304.418254 73.58969,301.36611 C77.22759,298.57899 80.04622,294.27222 82.23167,288.81386 C85.66487,280.23119 86.88859,272.12923 87.55057,258.14429 C88.18531,244.75655 88.69181,234.04643 89.83046,209.9486 C90.75785,190.3853 93.40206,171.2076 97.8151,152.0363 C107.4893,110.025 102.3732,66.3287 83.18203,27.074 C78.91767,18.349 74.20326,12.67 66.88767,8.1617 C63.03861,5.7906 59.1342,4.1861 54.76423,3.2068 C50.91594,2.3443 47.14927,2.1118 41.29976,2.1962 Z" id="path-21"></path>
    </defs>
    <g id="Page-1" stroke="none" stroke-width="1" fill="none" fill-rule="evenodd">
        <g id="rightInsertBottom">
            <g id="Group-7">
                <g id="Group-3">
                    <mask id="mask-2" fill="white">
                        <use xlink:href="#path-1"></use>
                    </mask>
                    <g id="Clip-2"></g>
                    <polygon id="Fill-1" fill="url(#linearGradient-3)" mask="url(#mask-2)" points="0 320 117 320 117 0 0 0"></polygon>
                </g>
                <g id="Group-6">
                    <mask id="mask-5" fill="white">
                        <use xlink:href="#path-4"></use>
                    </mask>
                    <g id="Clip-5"></g>
                    <polygon id="Fill-4" fill="url(#linearGradient-6)" mask="url(#mask-5)" points="0 320 117 320 117 0 0 0"></polygon>
                </g>
            </g>
            <g id="Group-14">
                <g id="Group-10">
                    <mask id="mask-8" fill="white">
                        <use xlink:href="#path-7"></use>
                    </mask>
                    <g id="Clip-9"></g>
                    <polygon id="Fill-8" fill="url(#linearGradient-3)" mask="url(#mask-8)" points="0 320 117 320 117 0 0 0"></polygon>
                </g>
                <g id="Group-13">
                    <mask id="mask-10" fill="white">
                        <use xlink:href="#path-9"></use>
                    </mask>
                    <g id="Clip-12"></g>
                    <polygon id="Fill-11" fill="url(#linearGradient-11)" mask="url(#mask-10)" points="0 320 117 320 117 0 0 0"></polygon>
                </g>
            </g>
            <g id="Group-21">
                <g id="Group-17">
                    <mask id="mask-13" fill="white">
                        <use xlink:href="#path-12"></use>
                    </mask>
                    <g id="Clip-16"></g>
                    <polygon id="Fill-15" fill="url(#linearGradient-3)" mask="url(#mask-13)" points="0 320 117 320 117 0 0 0"></polygon>
                </g>
                <g id="Group-20">
                    <mask id="mask-15" fill="white">
                        <use xlink:href="#path-14"></use>
                    </mask>
                    <g id="Clip-19"></g>
                    <polygon id="Fill-18" fill="url(#linearGradient-6)" mask="url(#mask-15)" points="0 320 117 320 117 0 0 0"></polygon>
                </g>
            </g>
            <g id="Group-28">
                <g id="Group-24">
                    <mask id="mask-17" fill="white">
                        <use xlink:href="#path-16"></use>
                    </mask>
                    <g id="Clip-23"></g>
                    <polygon id="Fill-22" fill="url(#linearGradient-3)" mask="url(#mask-17)" points="0 320 117 320 117 0 0 0"></polygon>
                </g>
                <g id="Group-27">
                    <mask id="mask-19" fill="white">
                        <use xlink:href="#path-18"></use>
                    </mask>
                    <g id="Clip-26"></g>
                    <polygon id="Fill-25" fill="url(#linearGradient-20)" mask="url(#mask-19)" points="0 320 117 320 117 0 0 0"></polygon>
                </g>
            </g>
            <g id="Group-31" transform="translate(6.000000, 6.000000)">
                <mask id="mask-22" fill="white">
                    <use xlink:href="#path-21"></use>
                </mask>
                <g id="Clip-30"></g>
                <polygon id="Fill-29" fill="#00BFF3" mask="url(#mask-22)" points="-17.97454 -12.5896 115.0612 -17.2353 126.8293 319.759283 -6.2064277 324.40499"></polygon>
            </g>
        </g>
    </g>
</svg>